<?xml version="1.0" encoding="utf-8" standalone="no"?>
<!DOCTYPE svg PUBLIC "-//W3C//DTD SVG 1.1//EN"
  "http://www.w3.org/Graphics/SVG/1.1/DTD/svg11.dtd">
<svg xmlns:xlink="http://www.w3.org/1999/xlink" width="638.848437pt" height="350.336275pt" viewBox="0 0 638.848437 350.336275" xmlns="http://www.w3.org/2000/svg" version="1.1">
 <metadata>
  <rdf:RDF xmlns:dc="http://purl.org/dc/elements/1.1/" xmlns:cc="http://creativecommons.org/ns#" xmlns:rdf="http://www.w3.org/1999/02/22-rdf-syntax-ns#">
   <cc:Work>
    <dc:type rdf:resource="http://purl.org/dc/dcmitype/StillImage"/>
    <dc:date>2026-05-12T00:52:31.447089</dc:date>
    <dc:format>image/svg+xml</dc:format>
    <dc:creator>
     <cc:Agent>
      <dc:title>Matplotlib v3.10.9, https://matplotlib.org/</dc:title>
     </cc:Agent>
    </dc:creator>
   </cc:Work>
  </rdf:RDF>
 </metadata>
 <defs>
  <style type="text/css">*{stroke-linejoin: round; stroke-linecap: butt}</style>
 </defs>
 <g id="figure_1">
  <g id="patch_1">
   <path d="M 0 350.336275 
L 638.848437 350.336275 
L 638.848437 0 
L 0 0 
z
" style="fill: #ffffff"/>
  </g>
  <g id="axes_1">
   <g id="patch_2">
    <path d="M 42.843438 272.959444 
L 631.648438 272.959444 
L 631.648438 22.318125 
L 42.843438 22.318125 
z
" style="fill: #ffffff"/>
   </g>
   <g id="matplotlib.axis_1">
    <g id="xtick_1">
     <g id="line2d_1">
      <path d="M 61.243594 272.959444 
L 61.243594 22.318125 
" clip-path="url(#p286f730572)" style="fill: none; stroke-dasharray: 2.96,1.28; stroke-dashoffset: 0; stroke: #b0b0b0; stroke-opacity: 0.3; stroke-width: 0.8"/>
     </g>
     <g id="line2d_2">
      <defs>
       <path id="m6f16cb6b9f" d="M 0 0 
L 0 3.5 
" style="stroke: #000000; stroke-width: 0.8"/>
      </defs>
      <g>
       <use xlink:href="#m6f16cb6b9f" x="61.243594" y="272.959444" style="stroke: #000000; stroke-width: 0.8"/>
      </g>
     </g>
     <g id="text_1">
      <!-- s1_correct -->
      <g transform="translate(19.789746 317.445163) rotate(-45) scale(0.09 -0.09)">
       <defs>
        <path id="DejaVuSans-73" d="M 2834 3397 
L 2834 2853 
Q 2591 2978 2328 3040 
Q 2066 3103 1784 3103 
Q 1356 3103 1142 2972 
Q 928 2841 928 2578 
Q 928 2378 1081 2264 
Q 1234 2150 1697 2047 
L 1894 2003 
Q 2506 1872 2764 1633 
Q 3022 1394 3022 966 
Q 3022 478 2636 193 
Q 2250 -91 1575 -91 
Q 1294 -91 989 -36 
Q 684 19 347 128 
L 347 722 
Q 666 556 975 473 
Q 1284 391 1588 391 
Q 1994 391 2212 530 
Q 2431 669 2431 922 
Q 2431 1156 2273 1281 
Q 2116 1406 1581 1522 
L 1381 1569 
Q 847 1681 609 1914 
Q 372 2147 372 2553 
Q 372 3047 722 3315 
Q 1072 3584 1716 3584 
Q 2034 3584 2315 3537 
Q 2597 3491 2834 3397 
z
" transform="scale(0.015625)"/>
        <path id="DejaVuSans-31" d="M 794 531 
L 1825 531 
L 1825 4091 
L 703 3866 
L 703 4441 
L 1819 4666 
L 2450 4666 
L 2450 531 
L 3481 531 
L 3481 0 
L 794 0 
L 794 531 
z
" transform="scale(0.015625)"/>
        <path id="DejaVuSans-5f" d="M 3263 -1063 
L 3263 -1509 
L -63 -1509 
L -63 -1063 
L 3263 -1063 
z
" transform="scale(0.015625)"/>
        <path id="DejaVuSans-63" d="M 3122 3366 
L 3122 2828 
Q 2878 2963 2633 3030 
Q 2388 3097 2138 3097 
Q 1578 3097 1268 2742 
Q 959 2388 959 1747 
Q 959 1106 1268 751 
Q 1578 397 2138 397 
Q 2388 397 2633 464 
Q 2878 531 3122 666 
L 3122 134 
Q 2881 22 2623 -34 
Q 2366 -91 2075 -91 
Q 1284 -91 818 406 
Q 353 903 353 1747 
Q 353 2603 823 3093 
Q 1294 3584 2113 3584 
Q 2378 3584 2631 3529 
Q 2884 3475 3122 3366 
z
" transform="scale(0.015625)"/>
        <path id="DejaVuSans-6f" d="M 1959 3097 
Q 1497 3097 1228 2736 
Q 959 2375 959 1747 
Q 959 1119 1226 758 
Q 1494 397 1959 397 
Q 2419 397 2687 759 
Q 2956 1122 2956 1747 
Q 2956 2369 2687 2733 
Q 2419 3097 1959 3097 
z
M 1959 3584 
Q 2709 3584 3137 3096 
Q 3566 2609 3566 1747 
Q 3566 888 3137 398 
Q 2709 -91 1959 -91 
Q 1206 -91 779 398 
Q 353 888 353 1747 
Q 353 2609 779 3096 
Q 1206 3584 1959 3584 
z
" transform="scale(0.015625)"/>
        <path id="DejaVuSans-72" d="M 2631 2963 
Q 2534 3019 2420 3045 
Q 2306 3072 2169 3072 
Q 1681 3072 1420 2755 
Q 1159 2438 1159 1844 
L 1159 0 
L 581 0 
L 581 3500 
L 1159 3500 
L 1159 2956 
Q 1341 3275 1631 3429 
Q 1922 3584 2338 3584 
Q 2397 3584 2469 3576 
Q 2541 3569 2628 3553 
L 2631 2963 
z
" transform="scale(0.015625)"/>
        <path id="DejaVuSans-65" d="M 3597 1894 
L 3597 1613 
L 953 1613 
Q 991 1019 1311 708 
Q 1631 397 2203 397 
Q 2534 397 2845 478 
Q 3156 559 3463 722 
L 3463 178 
Q 3153 47 2828 -22 
Q 2503 -91 2169 -91 
Q 1331 -91 842 396 
Q 353 884 353 1716 
Q 353 2575 817 3079 
Q 1281 3584 2069 3584 
Q 2775 3584 3186 3129 
Q 3597 2675 3597 1894 
z
M 3022 2063 
Q 3016 2534 2758 2815 
Q 2500 3097 2075 3097 
Q 1594 3097 1305 2825 
Q 1016 2553 972 2059 
L 3022 2063 
z
" transform="scale(0.015625)"/>
        <path id="DejaVuSans-74" d="M 1172 4494 
L 1172 3500 
L 2356 3500 
L 2356 3053 
L 1172 3053 
L 1172 1153 
Q 1172 725 1289 603 
Q 1406 481 1766 481 
L 2356 481 
L 2356 0 
L 1766 0 
Q 1100 0 847 248 
Q 594 497 594 1153 
L 594 3053 
L 172 3053 
L 172 3500 
L 594 3500 
L 594 4494 
L 1172 4494 
z
" transform="scale(0.015625)"/>
       </defs>
       <use xlink:href="#DejaVuSans-73"/>
       <use xlink:href="#DejaVuSans-31" transform="translate(52.099609 0)"/>
       <use xlink:href="#DejaVuSans-5f" transform="translate(115.722656 0)"/>
       <use xlink:href="#DejaVuSans-63" transform="translate(165.722656 0)"/>
       <use xlink:href="#DejaVuSans-6f" transform="translate(220.703125 0)"/>
       <use xlink:href="#DejaVuSans-72" transform="translate(281.884766 0)"/>
       <use xlink:href="#DejaVuSans-72" transform="translate(321.248047 0)"/>
       <use xlink:href="#DejaVuSans-65" transform="translate(360.111328 0)"/>
       <use xlink:href="#DejaVuSans-63" transform="translate(421.634766 0)"/>
       <use xlink:href="#DejaVuSans-74" transform="translate(476.615234 0)"/>
      </g>
      <!-- baseline -->
      <g transform="translate(33.264041 318.577352) rotate(-45) scale(0.09 -0.09)">
       <defs>
        <path id="DejaVuSans-62" d="M 3116 1747 
Q 3116 2381 2855 2742 
Q 2594 3103 2138 3103 
Q 1681 3103 1420 2742 
Q 1159 2381 1159 1747 
Q 1159 1113 1420 752 
Q 1681 391 2138 391 
Q 2594 391 2855 752 
Q 3116 1113 3116 1747 
z
M 1159 2969 
Q 1341 3281 1617 3432 
Q 1894 3584 2278 3584 
Q 2916 3584 3314 3078 
Q 3713 2572 3713 1747 
Q 3713 922 3314 415 
Q 2916 -91 2278 -91 
Q 1894 -91 1617 61 
Q 1341 213 1159 525 
L 1159 0 
L 581 0 
L 581 4863 
L 1159 4863 
L 1159 2969 
z
" transform="scale(0.015625)"/>
        <path id="DejaVuSans-61" d="M 2194 1759 
Q 1497 1759 1228 1600 
Q 959 1441 959 1056 
Q 959 750 1161 570 
Q 1363 391 1709 391 
Q 2188 391 2477 730 
Q 2766 1069 2766 1631 
L 2766 1759 
L 2194 1759 
z
M 3341 1997 
L 3341 0 
L 2766 0 
L 2766 531 
Q 2569 213 2275 61 
Q 1981 -91 1556 -91 
Q 1019 -91 701 211 
Q 384 513 384 1019 
Q 384 1609 779 1909 
Q 1175 2209 1959 2209 
L 2766 2209 
L 2766 2266 
Q 2766 2663 2505 2880 
Q 2244 3097 1772 3097 
Q 1472 3097 1187 3025 
Q 903 2953 641 2809 
L 641 3341 
Q 956 3463 1253 3523 
Q 1550 3584 1831 3584 
Q 2591 3584 2966 3190 
Q 3341 2797 3341 1997 
z
" transform="scale(0.015625)"/>
        <path id="DejaVuSans-6c" d="M 603 4863 
L 1178 4863 
L 1178 0 
L 603 0 
L 603 4863 
z
" transform="scale(0.015625)"/>
        <path id="DejaVuSans-69" d="M 603 3500 
L 1178 3500 
L 1178 0 
L 603 0 
L 603 3500 
z
M 603 4863 
L 1178 4863 
L 1178 4134 
L 603 4134 
L 603 4863 
z
" transform="scale(0.015625)"/>
        <path id="DejaVuSans-6e" d="M 3513 2113 
L 3513 0 
L 2938 0 
L 2938 2094 
Q 2938 2591 2744 2837 
Q 2550 3084 2163 3084 
Q 1697 3084 1428 2787 
Q 1159 2491 1159 1978 
L 1159 0 
L 581 0 
L 581 3500 
L 1159 3500 
L 1159 2956 
Q 1366 3272 1645 3428 
Q 1925 3584 2291 3584 
Q 2894 3584 3203 3211 
Q 3513 2838 3513 2113 
z
" transform="scale(0.015625)"/>
       </defs>
       <use xlink:href="#DejaVuSans-62"/>
       <use xlink:href="#DejaVuSans-61" transform="translate(63.476562 0)"/>
       <use xlink:href="#DejaVuSans-73" transform="translate(124.755859 0)"/>
       <use xlink:href="#DejaVuSans-65" transform="translate(176.855469 0)"/>
       <use xlink:href="#DejaVuSans-6c" transform="translate(238.378906 0)"/>
       <use xlink:href="#DejaVuSans-69" transform="translate(266.162109 0)"/>
       <use xlink:href="#DejaVuSans-6e" transform="translate(293.945312 0)"/>
       <use xlink:href="#DejaVuSans-65" transform="translate(357.324219 0)"/>
      </g>
     </g>
    </g>
    <g id="xtick_2">
     <g id="line2d_3">
      <path d="M 98.043906 272.959444 
L 98.043906 22.318125 
" clip-path="url(#p286f730572)" style="fill: none; stroke-dasharray: 2.96,1.28; stroke-dashoffset: 0; stroke: #b0b0b0; stroke-opacity: 0.3; stroke-width: 0.8"/>
     </g>
     <g id="line2d_4">
      <g>
       <use xlink:href="#m6f16cb6b9f" x="98.043906" y="272.959444" style="stroke: #000000; stroke-width: 0.8"/>
      </g>
     </g>
     <g id="text_2">
      <!-- s1_correct -->
      <g transform="translate(56.590058 317.445163) rotate(-45) scale(0.09 -0.09)">
       <use xlink:href="#DejaVuSans-73"/>
       <use xlink:href="#DejaVuSans-31" transform="translate(52.099609 0)"/>
       <use xlink:href="#DejaVuSans-5f" transform="translate(115.722656 0)"/>
       <use xlink:href="#DejaVuSans-63" transform="translate(165.722656 0)"/>
       <use xlink:href="#DejaVuSans-6f" transform="translate(220.703125 0)"/>
       <use xlink:href="#DejaVuSans-72" transform="translate(281.884766 0)"/>
       <use xlink:href="#DejaVuSans-72" transform="translate(321.248047 0)"/>
       <use xlink:href="#DejaVuSans-65" transform="translate(360.111328 0)"/>
       <use xlink:href="#DejaVuSans-63" transform="translate(421.634766 0)"/>
       <use xlink:href="#DejaVuSans-74" transform="translate(476.615234 0)"/>
      </g>
      <!-- FLV -->
      <g transform="translate(85.860898 302.780807) rotate(-45) scale(0.09 -0.09)">
       <defs>
        <path id="DejaVuSans-46" d="M 628 4666 
L 3309 4666 
L 3309 4134 
L 1259 4134 
L 1259 2759 
L 3109 2759 
L 3109 2228 
L 1259 2228 
L 1259 0 
L 628 0 
L 628 4666 
z
" transform="scale(0.015625)"/>
        <path id="DejaVuSans-4c" d="M 628 4666 
L 1259 4666 
L 1259 531 
L 3531 531 
L 3531 0 
L 628 0 
L 628 4666 
z
" transform="scale(0.015625)"/>
        <path id="DejaVuSans-56" d="M 1831 0 
L 50 4666 
L 709 4666 
L 2188 738 
L 3669 4666 
L 4325 4666 
L 2547 0 
L 1831 0 
z
" transform="scale(0.015625)"/>
       </defs>
       <use xlink:href="#DejaVuSans-46"/>
       <use xlink:href="#DejaVuSans-4c" transform="translate(57.519531 0)"/>
       <use xlink:href="#DejaVuSans-56" transform="translate(102.232422 0)"/>
      </g>
     </g>
    </g>
    <g id="xtick_3">
     <g id="line2d_5">
      <path d="M 134.844219 272.959444 
L 134.844219 22.318125 
" clip-path="url(#p286f730572)" style="fill: none; stroke-dasharray: 2.96,1.28; stroke-dashoffset: 0; stroke: #b0b0b0; stroke-opacity: 0.3; stroke-width: 0.8"/>
     </g>
     <g id="line2d_6">
      <g>
       <use xlink:href="#m6f16cb6b9f" x="134.844219" y="272.959444" style="stroke: #000000; stroke-width: 0.8"/>
      </g>
     </g>
     <g id="text_3">
      <!-- s1_n_too_low -->
      <g transform="translate(84.124841 326.887691) rotate(-45) scale(0.09 -0.09)">
       <defs>
        <path id="DejaVuSans-77" d="M 269 3500 
L 844 3500 
L 1563 769 
L 2278 3500 
L 2956 3500 
L 3675 769 
L 4391 3500 
L 4966 3500 
L 4050 0 
L 3372 0 
L 2619 2869 
L 1863 0 
L 1184 0 
L 269 3500 
z
" transform="scale(0.015625)"/>
       </defs>
       <use xlink:href="#DejaVuSans-73"/>
       <use xlink:href="#DejaVuSans-31" transform="translate(52.099609 0)"/>
       <use xlink:href="#DejaVuSans-5f" transform="translate(115.722656 0)"/>
       <use xlink:href="#DejaVuSans-6e" transform="translate(165.722656 0)"/>
       <use xlink:href="#DejaVuSans-5f" transform="translate(229.101562 0)"/>
       <use xlink:href="#DejaVuSans-74" transform="translate(279.101562 0)"/>
       <use xlink:href="#DejaVuSans-6f" transform="translate(318.310547 0)"/>
       <use xlink:href="#DejaVuSans-6f" transform="translate(379.492188 0)"/>
       <use xlink:href="#DejaVuSans-5f" transform="translate(440.673828 0)"/>
       <use xlink:href="#DejaVuSans-6c" transform="translate(490.673828 0)"/>
       <use xlink:href="#DejaVuSans-6f" transform="translate(518.457031 0)"/>
       <use xlink:href="#DejaVuSans-77" transform="translate(579.638672 0)"/>
      </g>
      <!-- baseline -->
      <g transform="translate(106.864666 318.75435) rotate(-45) scale(0.09 -0.09)">
       <use xlink:href="#DejaVuSans-62"/>
       <use xlink:href="#DejaVuSans-61" transform="translate(63.476562 0)"/>
       <use xlink:href="#DejaVuSans-73" transform="translate(124.755859 0)"/>
       <use xlink:href="#DejaVuSans-65" transform="translate(176.855469 0)"/>
       <use xlink:href="#DejaVuSans-6c" transform="translate(238.378906 0)"/>
       <use xlink:href="#DejaVuSans-69" transform="translate(266.162109 0)"/>
       <use xlink:href="#DejaVuSans-6e" transform="translate(293.945312 0)"/>
       <use xlink:href="#DejaVuSans-65" transform="translate(357.324219 0)"/>
      </g>
     </g>
    </g>
    <g id="xtick_4">
     <g id="line2d_7">
      <path d="M 171.644531 272.959444 
L 171.644531 22.318125 
" clip-path="url(#p286f730572)" style="fill: none; stroke-dasharray: 2.96,1.28; stroke-dashoffset: 0; stroke: #b0b0b0; stroke-opacity: 0.3; stroke-width: 0.8"/>
     </g>
     <g id="line2d_8">
      <g>
       <use xlink:href="#m6f16cb6b9f" x="171.644531" y="272.959444" style="stroke: #000000; stroke-width: 0.8"/>
      </g>
     </g>
     <g id="text_4">
      <!-- s1_n_too_low -->
      <g transform="translate(120.925154 326.887691) rotate(-45) scale(0.09 -0.09)">
       <use xlink:href="#DejaVuSans-73"/>
       <use xlink:href="#DejaVuSans-31" transform="translate(52.099609 0)"/>
       <use xlink:href="#DejaVuSans-5f" transform="translate(115.722656 0)"/>
       <use xlink:href="#DejaVuSans-6e" transform="translate(165.722656 0)"/>
       <use xlink:href="#DejaVuSans-5f" transform="translate(229.101562 0)"/>
       <use xlink:href="#DejaVuSans-74" transform="translate(279.101562 0)"/>
       <use xlink:href="#DejaVuSans-6f" transform="translate(318.310547 0)"/>
       <use xlink:href="#DejaVuSans-6f" transform="translate(379.492188 0)"/>
       <use xlink:href="#DejaVuSans-5f" transform="translate(440.673828 0)"/>
       <use xlink:href="#DejaVuSans-6c" transform="translate(490.673828 0)"/>
       <use xlink:href="#DejaVuSans-6f" transform="translate(518.457031 0)"/>
       <use xlink:href="#DejaVuSans-77" transform="translate(579.638672 0)"/>
      </g>
      <!-- FLV -->
      <g transform="translate(159.461523 302.957805) rotate(-45) scale(0.09 -0.09)">
       <use xlink:href="#DejaVuSans-46"/>
       <use xlink:href="#DejaVuSans-4c" transform="translate(57.519531 0)"/>
       <use xlink:href="#DejaVuSans-56" transform="translate(102.232422 0)"/>
      </g>
     </g>
    </g>
    <g id="xtick_5">
     <g id="line2d_9">
      <path d="M 208.444844 272.959444 
L 208.444844 22.318125 
" clip-path="url(#p286f730572)" style="fill: none; stroke-dasharray: 2.96,1.28; stroke-dashoffset: 0; stroke: #b0b0b0; stroke-opacity: 0.3; stroke-width: 0.8"/>
     </g>
     <g id="line2d_10">
      <g>
       <use xlink:href="#m6f16cb6b9f" x="208.444844" y="272.959444" style="stroke: #000000; stroke-width: 0.8"/>
      </g>
     </g>
     <g id="text_5">
      <!-- s1_pred_fail -->
      <g transform="translate(161.944574 322.668583) rotate(-45) scale(0.09 -0.09)">
       <defs>
        <path id="DejaVuSans-70" d="M 1159 525 
L 1159 -1331 
L 581 -1331 
L 581 3500 
L 1159 3500 
L 1159 2969 
Q 1341 3281 1617 3432 
Q 1894 3584 2278 3584 
Q 2916 3584 3314 3078 
Q 3713 2572 3713 1747 
Q 3713 922 3314 415 
Q 2916 -91 2278 -91 
Q 1894 -91 1617 61 
Q 1341 213 1159 525 
z
M 3116 1747 
Q 3116 2381 2855 2742 
Q 2594 3103 2138 3103 
Q 1681 3103 1420 2742 
Q 1159 2381 1159 1747 
Q 1159 1113 1420 752 
Q 1681 391 2138 391 
Q 2594 391 2855 752 
Q 3116 1113 3116 1747 
z
" transform="scale(0.015625)"/>
        <path id="DejaVuSans-64" d="M 2906 2969 
L 2906 4863 
L 3481 4863 
L 3481 0 
L 2906 0 
L 2906 525 
Q 2725 213 2448 61 
Q 2172 -91 1784 -91 
Q 1150 -91 751 415 
Q 353 922 353 1747 
Q 353 2572 751 3078 
Q 1150 3584 1784 3584 
Q 2172 3584 2448 3432 
Q 2725 3281 2906 2969 
z
M 947 1747 
Q 947 1113 1208 752 
Q 1469 391 1925 391 
Q 2381 391 2643 752 
Q 2906 1113 2906 1747 
Q 2906 2381 2643 2742 
Q 2381 3103 1925 3103 
Q 1469 3103 1208 2742 
Q 947 2381 947 1747 
z
" transform="scale(0.015625)"/>
        <path id="DejaVuSans-66" d="M 2375 4863 
L 2375 4384 
L 1825 4384 
Q 1516 4384 1395 4259 
Q 1275 4134 1275 3809 
L 1275 3500 
L 2222 3500 
L 2222 3053 
L 1275 3053 
L 1275 0 
L 697 0 
L 697 3053 
L 147 3053 
L 147 3500 
L 697 3500 
L 697 3744 
Q 697 4328 969 4595 
Q 1241 4863 1831 4863 
L 2375 4863 
z
" transform="scale(0.015625)"/>
       </defs>
       <use xlink:href="#DejaVuSans-73"/>
       <use xlink:href="#DejaVuSans-31" transform="translate(52.099609 0)"/>
       <use xlink:href="#DejaVuSans-5f" transform="translate(115.722656 0)"/>
       <use xlink:href="#DejaVuSans-70" transform="translate(165.722656 0)"/>
       <use xlink:href="#DejaVuSans-72" transform="translate(229.199219 0)"/>
       <use xlink:href="#DejaVuSans-65" transform="translate(268.0625 0)"/>
       <use xlink:href="#DejaVuSans-64" transform="translate(329.585938 0)"/>
       <use xlink:href="#DejaVuSans-5f" transform="translate(393.0625 0)"/>
       <use xlink:href="#DejaVuSans-66" transform="translate(443.0625 0)"/>
       <use xlink:href="#DejaVuSans-61" transform="translate(478.267578 0)"/>
       <use xlink:href="#DejaVuSans-69" transform="translate(539.546875 0)"/>
       <use xlink:href="#DejaVuSans-6c" transform="translate(567.330078 0)"/>
      </g>
      <!-- baseline -->
      <g transform="translate(180.465291 318.75435) rotate(-45) scale(0.09 -0.09)">
       <use xlink:href="#DejaVuSans-62"/>
       <use xlink:href="#DejaVuSans-61" transform="translate(63.476562 0)"/>
       <use xlink:href="#DejaVuSans-73" transform="translate(124.755859 0)"/>
       <use xlink:href="#DejaVuSans-65" transform="translate(176.855469 0)"/>
       <use xlink:href="#DejaVuSans-6c" transform="translate(238.378906 0)"/>
       <use xlink:href="#DejaVuSans-69" transform="translate(266.162109 0)"/>
       <use xlink:href="#DejaVuSans-6e" transform="translate(293.945312 0)"/>
       <use xlink:href="#DejaVuSans-65" transform="translate(357.324219 0)"/>
      </g>
     </g>
    </g>
    <g id="xtick_6">
     <g id="line2d_11">
      <path d="M 245.245156 272.959444 
L 245.245156 22.318125 
" clip-path="url(#p286f730572)" style="fill: none; stroke-dasharray: 2.96,1.28; stroke-dashoffset: 0; stroke: #b0b0b0; stroke-opacity: 0.3; stroke-width: 0.8"/>
     </g>
     <g id="line2d_12">
      <g>
       <use xlink:href="#m6f16cb6b9f" x="245.245156" y="272.959444" style="stroke: #000000; stroke-width: 0.8"/>
      </g>
     </g>
     <g id="text_6">
      <!-- s1_pred_fail -->
      <g transform="translate(198.744886 322.668583) rotate(-45) scale(0.09 -0.09)">
       <use xlink:href="#DejaVuSans-73"/>
       <use xlink:href="#DejaVuSans-31" transform="translate(52.099609 0)"/>
       <use xlink:href="#DejaVuSans-5f" transform="translate(115.722656 0)"/>
       <use xlink:href="#DejaVuSans-70" transform="translate(165.722656 0)"/>
       <use xlink:href="#DejaVuSans-72" transform="translate(229.199219 0)"/>
       <use xlink:href="#DejaVuSans-65" transform="translate(268.0625 0)"/>
       <use xlink:href="#DejaVuSans-64" transform="translate(329.585938 0)"/>
       <use xlink:href="#DejaVuSans-5f" transform="translate(393.0625 0)"/>
       <use xlink:href="#DejaVuSans-66" transform="translate(443.0625 0)"/>
       <use xlink:href="#DejaVuSans-61" transform="translate(478.267578 0)"/>
       <use xlink:href="#DejaVuSans-69" transform="translate(539.546875 0)"/>
       <use xlink:href="#DejaVuSans-6c" transform="translate(567.330078 0)"/>
      </g>
      <!-- FLV -->
      <g transform="translate(233.062148 302.957805) rotate(-45) scale(0.09 -0.09)">
       <use xlink:href="#DejaVuSans-46"/>
       <use xlink:href="#DejaVuSans-4c" transform="translate(57.519531 0)"/>
       <use xlink:href="#DejaVuSans-56" transform="translate(102.232422 0)"/>
      </g>
     </g>
    </g>
    <g id="xtick_7">
     <g id="line2d_13">
      <path d="M 282.045469 272.959444 
L 282.045469 22.318125 
" clip-path="url(#p286f730572)" style="fill: none; stroke-dasharray: 2.96,1.28; stroke-dashoffset: 0; stroke: #b0b0b0; stroke-opacity: 0.3; stroke-width: 0.8"/>
     </g>
     <g id="line2d_14">
      <g>
       <use xlink:href="#m6f16cb6b9f" x="282.045469" y="272.959444" style="stroke: #000000; stroke-width: 0.8"/>
      </g>
     </g>
     <g id="text_7">
      <!-- s1_range_mism -->
      <g transform="translate(223.704254 334.509528) rotate(-45) scale(0.09 -0.09)">
       <defs>
        <path id="DejaVuSans-67" d="M 2906 1791 
Q 2906 2416 2648 2759 
Q 2391 3103 1925 3103 
Q 1463 3103 1205 2759 
Q 947 2416 947 1791 
Q 947 1169 1205 825 
Q 1463 481 1925 481 
Q 2391 481 2648 825 
Q 2906 1169 2906 1791 
z
M 3481 434 
Q 3481 -459 3084 -895 
Q 2688 -1331 1869 -1331 
Q 1566 -1331 1297 -1286 
Q 1028 -1241 775 -1147 
L 775 -588 
Q 1028 -725 1275 -790 
Q 1522 -856 1778 -856 
Q 2344 -856 2625 -561 
Q 2906 -266 2906 331 
L 2906 616 
Q 2728 306 2450 153 
Q 2172 0 1784 0 
Q 1141 0 747 490 
Q 353 981 353 1791 
Q 353 2603 747 3093 
Q 1141 3584 1784 3584 
Q 2172 3584 2450 3431 
Q 2728 3278 2906 2969 
L 2906 3500 
L 3481 3500 
L 3481 434 
z
" transform="scale(0.015625)"/>
        <path id="DejaVuSans-6d" d="M 3328 2828 
Q 3544 3216 3844 3400 
Q 4144 3584 4550 3584 
Q 5097 3584 5394 3201 
Q 5691 2819 5691 2113 
L 5691 0 
L 5113 0 
L 5113 2094 
Q 5113 2597 4934 2840 
Q 4756 3084 4391 3084 
Q 3944 3084 3684 2787 
Q 3425 2491 3425 1978 
L 3425 0 
L 2847 0 
L 2847 2094 
Q 2847 2600 2669 2842 
Q 2491 3084 2119 3084 
Q 1678 3084 1418 2786 
Q 1159 2488 1159 1978 
L 1159 0 
L 581 0 
L 581 3500 
L 1159 3500 
L 1159 2956 
Q 1356 3278 1631 3431 
Q 1906 3584 2284 3584 
Q 2666 3584 2933 3390 
Q 3200 3197 3328 2828 
z
" transform="scale(0.015625)"/>
       </defs>
       <use xlink:href="#DejaVuSans-73"/>
       <use xlink:href="#DejaVuSans-31" transform="translate(52.099609 0)"/>
       <use xlink:href="#DejaVuSans-5f" transform="translate(115.722656 0)"/>
       <use xlink:href="#DejaVuSans-72" transform="translate(165.722656 0)"/>
       <use xlink:href="#DejaVuSans-61" transform="translate(206.835938 0)"/>
       <use xlink:href="#DejaVuSans-6e" transform="translate(268.115234 0)"/>
       <use xlink:href="#DejaVuSans-67" transform="translate(331.494141 0)"/>
       <use xlink:href="#DejaVuSans-65" transform="translate(394.970703 0)"/>
       <use xlink:href="#DejaVuSans-5f" transform="translate(456.494141 0)"/>
       <use xlink:href="#DejaVuSans-6d" transform="translate(506.494141 0)"/>
       <use xlink:href="#DejaVuSans-69" transform="translate(603.90625 0)"/>
       <use xlink:href="#DejaVuSans-73" transform="translate(631.689453 0)"/>
       <use xlink:href="#DejaVuSans-6d" transform="translate(683.789062 0)"/>
      </g>
      <!-- baseline -->
      <g transform="translate(254.065916 318.75435) rotate(-45) scale(0.09 -0.09)">
       <use xlink:href="#DejaVuSans-62"/>
       <use xlink:href="#DejaVuSans-61" transform="translate(63.476562 0)"/>
       <use xlink:href="#DejaVuSans-73" transform="translate(124.755859 0)"/>
       <use xlink:href="#DejaVuSans-65" transform="translate(176.855469 0)"/>
       <use xlink:href="#DejaVuSans-6c" transform="translate(238.378906 0)"/>
       <use xlink:href="#DejaVuSans-69" transform="translate(266.162109 0)"/>
       <use xlink:href="#DejaVuSans-6e" transform="translate(293.945312 0)"/>
       <use xlink:href="#DejaVuSans-65" transform="translate(357.324219 0)"/>
      </g>
     </g>
    </g>
    <g id="xtick_8">
     <g id="line2d_15">
      <path d="M 318.845781 272.959444 
L 318.845781 22.318125 
" clip-path="url(#p286f730572)" style="fill: none; stroke-dasharray: 2.96,1.28; stroke-dashoffset: 0; stroke: #b0b0b0; stroke-opacity: 0.3; stroke-width: 0.8"/>
     </g>
     <g id="line2d_16">
      <g>
       <use xlink:href="#m6f16cb6b9f" x="318.845781" y="272.959444" style="stroke: #000000; stroke-width: 0.8"/>
      </g>
     </g>
     <g id="text_8">
      <!-- s1_range_mism -->
      <g transform="translate(260.504566 334.509528) rotate(-45) scale(0.09 -0.09)">
       <use xlink:href="#DejaVuSans-73"/>
       <use xlink:href="#DejaVuSans-31" transform="translate(52.099609 0)"/>
       <use xlink:href="#DejaVuSans-5f" transform="translate(115.722656 0)"/>
       <use xlink:href="#DejaVuSans-72" transform="translate(165.722656 0)"/>
       <use xlink:href="#DejaVuSans-61" transform="translate(206.835938 0)"/>
       <use xlink:href="#DejaVuSans-6e" transform="translate(268.115234 0)"/>
       <use xlink:href="#DejaVuSans-67" transform="translate(331.494141 0)"/>
       <use xlink:href="#DejaVuSans-65" transform="translate(394.970703 0)"/>
       <use xlink:href="#DejaVuSans-5f" transform="translate(456.494141 0)"/>
       <use xlink:href="#DejaVuSans-6d" transform="translate(506.494141 0)"/>
       <use xlink:href="#DejaVuSans-69" transform="translate(603.90625 0)"/>
       <use xlink:href="#DejaVuSans-73" transform="translate(631.689453 0)"/>
       <use xlink:href="#DejaVuSans-6d" transform="translate(683.789062 0)"/>
      </g>
      <!-- FLV -->
      <g transform="translate(306.662773 302.957805) rotate(-45) scale(0.09 -0.09)">
       <use xlink:href="#DejaVuSans-46"/>
       <use xlink:href="#DejaVuSans-4c" transform="translate(57.519531 0)"/>
       <use xlink:href="#DejaVuSans-56" transform="translate(102.232422 0)"/>
      </g>
     </g>
    </g>
    <g id="xtick_9">
     <g id="line2d_17">
      <path d="M 355.646094 272.959444 
L 355.646094 22.318125 
" clip-path="url(#p286f730572)" style="fill: none; stroke-dasharray: 2.96,1.28; stroke-dashoffset: 0; stroke: #b0b0b0; stroke-opacity: 0.3; stroke-width: 0.8"/>
     </g>
     <g id="line2d_18">
      <g>
       <use xlink:href="#m6f16cb6b9f" x="355.646094" y="272.959444" style="stroke: #000000; stroke-width: 0.8"/>
      </g>
     </g>
     <g id="text_9">
      <!-- s1_seq_miss -->
      <g transform="translate(307.422582 324.391825) rotate(-45) scale(0.09 -0.09)">
       <defs>
        <path id="DejaVuSans-71" d="M 947 1747 
Q 947 1113 1208 752 
Q 1469 391 1925 391 
Q 2381 391 2643 752 
Q 2906 1113 2906 1747 
Q 2906 2381 2643 2742 
Q 2381 3103 1925 3103 
Q 1469 3103 1208 2742 
Q 947 2381 947 1747 
z
M 2906 525 
Q 2725 213 2448 61 
Q 2172 -91 1784 -91 
Q 1150 -91 751 415 
Q 353 922 353 1747 
Q 353 2572 751 3078 
Q 1150 3584 1784 3584 
Q 2172 3584 2448 3432 
Q 2725 3281 2906 2969 
L 2906 3500 
L 3481 3500 
L 3481 -1331 
L 2906 -1331 
L 2906 525 
z
" transform="scale(0.015625)"/>
       </defs>
       <use xlink:href="#DejaVuSans-73"/>
       <use xlink:href="#DejaVuSans-31" transform="translate(52.099609 0)"/>
       <use xlink:href="#DejaVuSans-5f" transform="translate(115.722656 0)"/>
       <use xlink:href="#DejaVuSans-73" transform="translate(165.722656 0)"/>
       <use xlink:href="#DejaVuSans-65" transform="translate(217.822266 0)"/>
       <use xlink:href="#DejaVuSans-71" transform="translate(279.345703 0)"/>
       <use xlink:href="#DejaVuSans-5f" transform="translate(342.822266 0)"/>
       <use xlink:href="#DejaVuSans-6d" transform="translate(392.822266 0)"/>
       <use xlink:href="#DejaVuSans-69" transform="translate(490.234375 0)"/>
       <use xlink:href="#DejaVuSans-73" transform="translate(518.017578 0)"/>
       <use xlink:href="#DejaVuSans-73" transform="translate(570.117188 0)"/>
      </g>
      <!-- baseline -->
      <g transform="translate(327.666541 318.75435) rotate(-45) scale(0.09 -0.09)">
       <use xlink:href="#DejaVuSans-62"/>
       <use xlink:href="#DejaVuSans-61" transform="translate(63.476562 0)"/>
       <use xlink:href="#DejaVuSans-73" transform="translate(124.755859 0)"/>
       <use xlink:href="#DejaVuSans-65" transform="translate(176.855469 0)"/>
       <use xlink:href="#DejaVuSans-6c" transform="translate(238.378906 0)"/>
       <use xlink:href="#DejaVuSans-69" transform="translate(266.162109 0)"/>
       <use xlink:href="#DejaVuSans-6e" transform="translate(293.945312 0)"/>
       <use xlink:href="#DejaVuSans-65" transform="translate(357.324219 0)"/>
      </g>
     </g>
    </g>
    <g id="xtick_10">
     <g id="line2d_19">
      <path d="M 392.446406 272.959444 
L 392.446406 22.318125 
" clip-path="url(#p286f730572)" style="fill: none; stroke-dasharray: 2.96,1.28; stroke-dashoffset: 0; stroke: #b0b0b0; stroke-opacity: 0.3; stroke-width: 0.8"/>
     </g>
     <g id="line2d_20">
      <g>
       <use xlink:href="#m6f16cb6b9f" x="392.446406" y="272.959444" style="stroke: #000000; stroke-width: 0.8"/>
      </g>
     </g>
     <g id="text_10">
      <!-- s1_seq_miss -->
      <g transform="translate(344.222895 324.391825) rotate(-45) scale(0.09 -0.09)">
       <use xlink:href="#DejaVuSans-73"/>
       <use xlink:href="#DejaVuSans-31" transform="translate(52.099609 0)"/>
       <use xlink:href="#DejaVuSans-5f" transform="translate(115.722656 0)"/>
       <use xlink:href="#DejaVuSans-73" transform="translate(165.722656 0)"/>
       <use xlink:href="#DejaVuSans-65" transform="translate(217.822266 0)"/>
       <use xlink:href="#DejaVuSans-71" transform="translate(279.345703 0)"/>
       <use xlink:href="#DejaVuSans-5f" transform="translate(342.822266 0)"/>
       <use xlink:href="#DejaVuSans-6d" transform="translate(392.822266 0)"/>
       <use xlink:href="#DejaVuSans-69" transform="translate(490.234375 0)"/>
       <use xlink:href="#DejaVuSans-73" transform="translate(518.017578 0)"/>
       <use xlink:href="#DejaVuSans-73" transform="translate(570.117188 0)"/>
      </g>
      <!-- FLV -->
      <g transform="translate(380.263398 302.957805) rotate(-45) scale(0.09 -0.09)">
       <use xlink:href="#DejaVuSans-46"/>
       <use xlink:href="#DejaVuSans-4c" transform="translate(57.519531 0)"/>
       <use xlink:href="#DejaVuSans-56" transform="translate(102.232422 0)"/>
      </g>
     </g>
    </g>
    <g id="xtick_11">
     <g id="line2d_21">
      <path d="M 429.246719 272.959444 
L 429.246719 22.318125 
" clip-path="url(#p286f730572)" style="fill: none; stroke-dasharray: 2.96,1.28; stroke-dashoffset: 0; stroke: #b0b0b0; stroke-opacity: 0.3; stroke-width: 0.8"/>
     </g>
     <g id="line2d_22">
      <g>
       <use xlink:href="#m6f16cb6b9f" x="429.246719" y="272.959444" style="stroke: #000000; stroke-width: 0.8"/>
      </g>
     </g>
     <g id="text_11">
      <!-- s1_seq_order -->
      <g transform="translate(378.649649 326.765383) rotate(-45) scale(0.09 -0.09)">
       <use xlink:href="#DejaVuSans-73"/>
       <use xlink:href="#DejaVuSans-31" transform="translate(52.099609 0)"/>
       <use xlink:href="#DejaVuSans-5f" transform="translate(115.722656 0)"/>
       <use xlink:href="#DejaVuSans-73" transform="translate(165.722656 0)"/>
       <use xlink:href="#DejaVuSans-65" transform="translate(217.822266 0)"/>
       <use xlink:href="#DejaVuSans-71" transform="translate(279.345703 0)"/>
       <use xlink:href="#DejaVuSans-5f" transform="translate(342.822266 0)"/>
       <use xlink:href="#DejaVuSans-6f" transform="translate(392.822266 0)"/>
       <use xlink:href="#DejaVuSans-72" transform="translate(454.003906 0)"/>
       <use xlink:href="#DejaVuSans-64" transform="translate(493.367188 0)"/>
       <use xlink:href="#DejaVuSans-65" transform="translate(556.84375 0)"/>
       <use xlink:href="#DejaVuSans-72" transform="translate(618.367188 0)"/>
      </g>
      <!-- baseline -->
      <g transform="translate(401.267166 318.75435) rotate(-45) scale(0.09 -0.09)">
       <use xlink:href="#DejaVuSans-62"/>
       <use xlink:href="#DejaVuSans-61" transform="translate(63.476562 0)"/>
       <use xlink:href="#DejaVuSans-73" transform="translate(124.755859 0)"/>
       <use xlink:href="#DejaVuSans-65" transform="translate(176.855469 0)"/>
       <use xlink:href="#DejaVuSans-6c" transform="translate(238.378906 0)"/>
       <use xlink:href="#DejaVuSans-69" transform="translate(266.162109 0)"/>
       <use xlink:href="#DejaVuSans-6e" transform="translate(293.945312 0)"/>
       <use xlink:href="#DejaVuSans-65" transform="translate(357.324219 0)"/>
      </g>
     </g>
    </g>
    <g id="xtick_12">
     <g id="line2d_23">
      <path d="M 466.047031 272.959444 
L 466.047031 22.318125 
" clip-path="url(#p286f730572)" style="fill: none; stroke-dasharray: 2.96,1.28; stroke-dashoffset: 0; stroke: #b0b0b0; stroke-opacity: 0.3; stroke-width: 0.8"/>
     </g>
     <g id="line2d_24">
      <g>
       <use xlink:href="#m6f16cb6b9f" x="466.047031" y="272.959444" style="stroke: #000000; stroke-width: 0.8"/>
      </g>
     </g>
     <g id="text_12">
      <!-- s1_seq_order -->
      <g transform="translate(415.449961 326.765383) rotate(-45) scale(0.09 -0.09)">
       <use xlink:href="#DejaVuSans-73"/>
       <use xlink:href="#DejaVuSans-31" transform="translate(52.099609 0)"/>
       <use xlink:href="#DejaVuSans-5f" transform="translate(115.722656 0)"/>
       <use xlink:href="#DejaVuSans-73" transform="translate(165.722656 0)"/>
       <use xlink:href="#DejaVuSans-65" transform="translate(217.822266 0)"/>
       <use xlink:href="#DejaVuSans-71" transform="translate(279.345703 0)"/>
       <use xlink:href="#DejaVuSans-5f" transform="translate(342.822266 0)"/>
       <use xlink:href="#DejaVuSans-6f" transform="translate(392.822266 0)"/>
       <use xlink:href="#DejaVuSans-72" transform="translate(454.003906 0)"/>
       <use xlink:href="#DejaVuSans-64" transform="translate(493.367188 0)"/>
       <use xlink:href="#DejaVuSans-65" transform="translate(556.84375 0)"/>
       <use xlink:href="#DejaVuSans-72" transform="translate(618.367188 0)"/>
      </g>
      <!-- FLV -->
      <g transform="translate(453.864023 302.957805) rotate(-45) scale(0.09 -0.09)">
       <use xlink:href="#DejaVuSans-46"/>
       <use xlink:href="#DejaVuSans-4c" transform="translate(57.519531 0)"/>
       <use xlink:href="#DejaVuSans-56" transform="translate(102.232422 0)"/>
      </g>
     </g>
    </g>
    <g id="xtick_13">
     <g id="line2d_25">
      <path d="M 502.847344 272.959444 
L 502.847344 22.318125 
" clip-path="url(#p286f730572)" style="fill: none; stroke-dasharray: 2.96,1.28; stroke-dashoffset: 0; stroke: #b0b0b0; stroke-opacity: 0.3; stroke-width: 0.8"/>
     </g>
     <g id="line2d_26">
      <g>
       <use xlink:href="#m6f16cb6b9f" x="502.847344" y="272.959444" style="stroke: #000000; stroke-width: 0.8"/>
      </g>
     </g>
     <g id="text_13">
      <!-- s1_time_over -->
      <g transform="translate(451.922132 327.093525) rotate(-45) scale(0.09 -0.09)">
       <defs>
        <path id="DejaVuSans-76" d="M 191 3500 
L 800 3500 
L 1894 563 
L 2988 3500 
L 3597 3500 
L 2284 0 
L 1503 0 
L 191 3500 
z
" transform="scale(0.015625)"/>
       </defs>
       <use xlink:href="#DejaVuSans-73"/>
       <use xlink:href="#DejaVuSans-31" transform="translate(52.099609 0)"/>
       <use xlink:href="#DejaVuSans-5f" transform="translate(115.722656 0)"/>
       <use xlink:href="#DejaVuSans-74" transform="translate(165.722656 0)"/>
       <use xlink:href="#DejaVuSans-69" transform="translate(204.931641 0)"/>
       <use xlink:href="#DejaVuSans-6d" transform="translate(232.714844 0)"/>
       <use xlink:href="#DejaVuSans-65" transform="translate(330.126953 0)"/>
       <use xlink:href="#DejaVuSans-5f" transform="translate(391.650391 0)"/>
       <use xlink:href="#DejaVuSans-6f" transform="translate(441.650391 0)"/>
       <use xlink:href="#DejaVuSans-76" transform="translate(502.832031 0)"/>
       <use xlink:href="#DejaVuSans-65" transform="translate(562.011719 0)"/>
       <use xlink:href="#DejaVuSans-72" transform="translate(623.535156 0)"/>
      </g>
      <!-- baseline -->
      <g transform="translate(474.867791 318.75435) rotate(-45) scale(0.09 -0.09)">
       <use xlink:href="#DejaVuSans-62"/>
       <use xlink:href="#DejaVuSans-61" transform="translate(63.476562 0)"/>
       <use xlink:href="#DejaVuSans-73" transform="translate(124.755859 0)"/>
       <use xlink:href="#DejaVuSans-65" transform="translate(176.855469 0)"/>
       <use xlink:href="#DejaVuSans-6c" transform="translate(238.378906 0)"/>
       <use xlink:href="#DejaVuSans-69" transform="translate(266.162109 0)"/>
       <use xlink:href="#DejaVuSans-6e" transform="translate(293.945312 0)"/>
       <use xlink:href="#DejaVuSans-65" transform="translate(357.324219 0)"/>
      </g>
     </g>
    </g>
    <g id="xtick_14">
     <g id="line2d_27">
      <path d="M 539.647656 272.959444 
L 539.647656 22.318125 
" clip-path="url(#p286f730572)" style="fill: none; stroke-dasharray: 2.96,1.28; stroke-dashoffset: 0; stroke: #b0b0b0; stroke-opacity: 0.3; stroke-width: 0.8"/>
     </g>
     <g id="line2d_28">
      <g>
       <use xlink:href="#m6f16cb6b9f" x="539.647656" y="272.959444" style="stroke: #000000; stroke-width: 0.8"/>
      </g>
     </g>
     <g id="text_14">
      <!-- s1_time_over -->
      <g transform="translate(488.722445 327.093525) rotate(-45) scale(0.09 -0.09)">
       <use xlink:href="#DejaVuSans-73"/>
       <use xlink:href="#DejaVuSans-31" transform="translate(52.099609 0)"/>
       <use xlink:href="#DejaVuSans-5f" transform="translate(115.722656 0)"/>
       <use xlink:href="#DejaVuSans-74" transform="translate(165.722656 0)"/>
       <use xlink:href="#DejaVuSans-69" transform="translate(204.931641 0)"/>
       <use xlink:href="#DejaVuSans-6d" transform="translate(232.714844 0)"/>
       <use xlink:href="#DejaVuSans-65" transform="translate(330.126953 0)"/>
       <use xlink:href="#DejaVuSans-5f" transform="translate(391.650391 0)"/>
       <use xlink:href="#DejaVuSans-6f" transform="translate(441.650391 0)"/>
       <use xlink:href="#DejaVuSans-76" transform="translate(502.832031 0)"/>
       <use xlink:href="#DejaVuSans-65" transform="translate(562.011719 0)"/>
       <use xlink:href="#DejaVuSans-72" transform="translate(623.535156 0)"/>
      </g>
      <!-- FLV -->
      <g transform="translate(527.464648 302.957805) rotate(-45) scale(0.09 -0.09)">
       <use xlink:href="#DejaVuSans-46"/>
       <use xlink:href="#DejaVuSans-4c" transform="translate(57.519531 0)"/>
       <use xlink:href="#DejaVuSans-56" transform="translate(102.232422 0)"/>
      </g>
     </g>
    </g>
    <g id="xtick_15">
     <g id="line2d_29">
      <path d="M 576.447969 272.959444 
L 576.447969 22.318125 
" clip-path="url(#p286f730572)" style="fill: none; stroke-dasharray: 2.96,1.28; stroke-dashoffset: 0; stroke: #b0b0b0; stroke-opacity: 0.3; stroke-width: 0.8"/>
     </g>
     <g id="line2d_30">
      <g>
       <use xlink:href="#m6f16cb6b9f" x="576.447969" y="272.959444" style="stroke: #000000; stroke-width: 0.8"/>
      </g>
     </g>
     <g id="text_15">
      <!-- s1_time_under -->
      <g transform="translate(521.076934 331.539348) rotate(-45) scale(0.09 -0.09)">
       <defs>
        <path id="DejaVuSans-75" d="M 544 1381 
L 544 3500 
L 1119 3500 
L 1119 1403 
Q 1119 906 1312 657 
Q 1506 409 1894 409 
Q 2359 409 2629 706 
Q 2900 1003 2900 1516 
L 2900 3500 
L 3475 3500 
L 3475 0 
L 2900 0 
L 2900 538 
Q 2691 219 2414 64 
Q 2138 -91 1772 -91 
Q 1169 -91 856 284 
Q 544 659 544 1381 
z
M 1991 3584 
L 1991 3584 
z
" transform="scale(0.015625)"/>
       </defs>
       <use xlink:href="#DejaVuSans-73"/>
       <use xlink:href="#DejaVuSans-31" transform="translate(52.099609 0)"/>
       <use xlink:href="#DejaVuSans-5f" transform="translate(115.722656 0)"/>
       <use xlink:href="#DejaVuSans-74" transform="translate(165.722656 0)"/>
       <use xlink:href="#DejaVuSans-69" transform="translate(204.931641 0)"/>
       <use xlink:href="#DejaVuSans-6d" transform="translate(232.714844 0)"/>
       <use xlink:href="#DejaVuSans-65" transform="translate(330.126953 0)"/>
       <use xlink:href="#DejaVuSans-5f" transform="translate(391.650391 0)"/>
       <use xlink:href="#DejaVuSans-75" transform="translate(441.650391 0)"/>
       <use xlink:href="#DejaVuSans-6e" transform="translate(505.029297 0)"/>
       <use xlink:href="#DejaVuSans-64" transform="translate(568.408203 0)"/>
       <use xlink:href="#DejaVuSans-65" transform="translate(631.884766 0)"/>
       <use xlink:href="#DejaVuSans-72" transform="translate(693.408203 0)"/>
      </g>
      <!-- baseline -->
      <g transform="translate(548.468416 318.75435) rotate(-45) scale(0.09 -0.09)">
       <use xlink:href="#DejaVuSans-62"/>
       <use xlink:href="#DejaVuSans-61" transform="translate(63.476562 0)"/>
       <use xlink:href="#DejaVuSans-73" transform="translate(124.755859 0)"/>
       <use xlink:href="#DejaVuSans-65" transform="translate(176.855469 0)"/>
       <use xlink:href="#DejaVuSans-6c" transform="translate(238.378906 0)"/>
       <use xlink:href="#DejaVuSans-69" transform="translate(266.162109 0)"/>
       <use xlink:href="#DejaVuSans-6e" transform="translate(293.945312 0)"/>
       <use xlink:href="#DejaVuSans-65" transform="translate(357.324219 0)"/>
      </g>
     </g>
    </g>
    <g id="xtick_16">
     <g id="line2d_31">
      <path d="M 613.248281 272.959444 
L 613.248281 22.318125 
" clip-path="url(#p286f730572)" style="fill: none; stroke-dasharray: 2.96,1.28; stroke-dashoffset: 0; stroke: #b0b0b0; stroke-opacity: 0.3; stroke-width: 0.8"/>
     </g>
     <g id="line2d_32">
      <g>
       <use xlink:href="#m6f16cb6b9f" x="613.248281" y="272.959444" style="stroke: #000000; stroke-width: 0.8"/>
      </g>
     </g>
     <g id="text_16">
      <!-- s1_time_under -->
      <g transform="translate(557.877246 331.539348) rotate(-45) scale(0.09 -0.09)">
       <use xlink:href="#DejaVuSans-73"/>
       <use xlink:href="#DejaVuSans-31" transform="translate(52.099609 0)"/>
       <use xlink:href="#DejaVuSans-5f" transform="translate(115.722656 0)"/>
       <use xlink:href="#DejaVuSans-74" transform="translate(165.722656 0)"/>
       <use xlink:href="#DejaVuSans-69" transform="translate(204.931641 0)"/>
       <use xlink:href="#DejaVuSans-6d" transform="translate(232.714844 0)"/>
       <use xlink:href="#DejaVuSans-65" transform="translate(330.126953 0)"/>
       <use xlink:href="#DejaVuSans-5f" transform="translate(391.650391 0)"/>
       <use xlink:href="#DejaVuSans-75" transform="translate(441.650391 0)"/>
       <use xlink:href="#DejaVuSans-6e" transform="translate(505.029297 0)"/>
       <use xlink:href="#DejaVuSans-64" transform="translate(568.408203 0)"/>
       <use xlink:href="#DejaVuSans-65" transform="translate(631.884766 0)"/>
       <use xlink:href="#DejaVuSans-72" transform="translate(693.408203 0)"/>
      </g>
      <!-- FLV -->
      <g transform="translate(601.065273 302.957805) rotate(-45) scale(0.09 -0.09)">
       <use xlink:href="#DejaVuSans-46"/>
       <use xlink:href="#DejaVuSans-4c" transform="translate(57.519531 0)"/>
       <use xlink:href="#DejaVuSans-56" transform="translate(102.232422 0)"/>
      </g>
     </g>
    </g>
   </g>
   <g id="matplotlib.axis_2">
    <g id="ytick_1">
     <g id="line2d_33">
      <path d="M 42.843438 262.626026 
L 631.648438 262.626026 
" clip-path="url(#p286f730572)" style="fill: none; stroke-dasharray: 2.96,1.28; stroke-dashoffset: 0; stroke: #b0b0b0; stroke-opacity: 0.3; stroke-width: 0.8"/>
     </g>
     <g id="line2d_34">
      <defs>
       <path id="mea4014c519" d="M 0 0 
L -3.5 0 
" style="stroke: #000000; stroke-width: 0.8"/>
      </defs>
      <g>
       <use xlink:href="#mea4014c519" x="42.843438" y="262.626026" style="stroke: #000000; stroke-width: 0.8"/>
      </g>
     </g>
     <g id="text_17">
      <!-- 0 -->
      <g transform="translate(28.844688 266.805167) scale(0.11 -0.11)">
       <defs>
        <path id="DejaVuSans-30" d="M 2034 4250 
Q 1547 4250 1301 3770 
Q 1056 3291 1056 2328 
Q 1056 1369 1301 889 
Q 1547 409 2034 409 
Q 2525 409 2770 889 
Q 3016 1369 3016 2328 
Q 3016 3291 2770 3770 
Q 2525 4250 2034 4250 
z
M 2034 4750 
Q 2819 4750 3233 4129 
Q 3647 3509 3647 2328 
Q 3647 1150 3233 529 
Q 2819 -91 2034 -91 
Q 1250 -91 836 529 
Q 422 1150 422 2328 
Q 422 3509 836 4129 
Q 1250 4750 2034 4750 
z
" transform="scale(0.015625)"/>
       </defs>
       <use xlink:href="#DejaVuSans-30"/>
      </g>
     </g>
    </g>
    <g id="ytick_2">
     <g id="line2d_35">
      <path d="M 42.843438 216.963552 
L 631.648438 216.963552 
" clip-path="url(#p286f730572)" style="fill: none; stroke-dasharray: 2.96,1.28; stroke-dashoffset: 0; stroke: #b0b0b0; stroke-opacity: 0.3; stroke-width: 0.8"/>
     </g>
     <g id="line2d_36">
      <g>
       <use xlink:href="#mea4014c519" x="42.843438" y="216.963552" style="stroke: #000000; stroke-width: 0.8"/>
      </g>
     </g>
     <g id="text_18">
      <!-- 10 -->
      <g transform="translate(21.845938 221.142693) scale(0.11 -0.11)">
       <use xlink:href="#DejaVuSans-31"/>
       <use xlink:href="#DejaVuSans-30" transform="translate(63.623047 0)"/>
      </g>
     </g>
    </g>
    <g id="ytick_3">
     <g id="line2d_37">
      <path d="M 42.843438 171.301079 
L 631.648438 171.301079 
" clip-path="url(#p286f730572)" style="fill: none; stroke-dasharray: 2.96,1.28; stroke-dashoffset: 0; stroke: #b0b0b0; stroke-opacity: 0.3; stroke-width: 0.8"/>
     </g>
     <g id="line2d_38">
      <g>
       <use xlink:href="#mea4014c519" x="42.843438" y="171.301079" style="stroke: #000000; stroke-width: 0.8"/>
      </g>
     </g>
     <g id="text_19">
      <!-- 20 -->
      <g transform="translate(21.845938 175.480219) scale(0.11 -0.11)">
       <defs>
        <path id="DejaVuSans-32" d="M 1228 531 
L 3431 531 
L 3431 0 
L 469 0 
L 469 531 
Q 828 903 1448 1529 
Q 2069 2156 2228 2338 
Q 2531 2678 2651 2914 
Q 2772 3150 2772 3378 
Q 2772 3750 2511 3984 
Q 2250 4219 1831 4219 
Q 1534 4219 1204 4116 
Q 875 4013 500 3803 
L 500 4441 
Q 881 4594 1212 4672 
Q 1544 4750 1819 4750 
Q 2544 4750 2975 4387 
Q 3406 4025 3406 3419 
Q 3406 3131 3298 2873 
Q 3191 2616 2906 2266 
Q 2828 2175 2409 1742 
Q 1991 1309 1228 531 
z
" transform="scale(0.015625)"/>
       </defs>
       <use xlink:href="#DejaVuSans-32"/>
       <use xlink:href="#DejaVuSans-30" transform="translate(63.623047 0)"/>
      </g>
     </g>
    </g>
    <g id="ytick_4">
     <g id="line2d_39">
      <path d="M 42.843438 125.638605 
L 631.648438 125.638605 
" clip-path="url(#p286f730572)" style="fill: none; stroke-dasharray: 2.96,1.28; stroke-dashoffset: 0; stroke: #b0b0b0; stroke-opacity: 0.3; stroke-width: 0.8"/>
     </g>
     <g id="line2d_40">
      <g>
       <use xlink:href="#mea4014c519" x="42.843438" y="125.638605" style="stroke: #000000; stroke-width: 0.8"/>
      </g>
     </g>
     <g id="text_20">
      <!-- 30 -->
      <g transform="translate(21.845938 129.817745) scale(0.11 -0.11)">
       <defs>
        <path id="DejaVuSans-33" d="M 2597 2516 
Q 3050 2419 3304 2112 
Q 3559 1806 3559 1356 
Q 3559 666 3084 287 
Q 2609 -91 1734 -91 
Q 1441 -91 1130 -33 
Q 819 25 488 141 
L 488 750 
Q 750 597 1062 519 
Q 1375 441 1716 441 
Q 2309 441 2620 675 
Q 2931 909 2931 1356 
Q 2931 1769 2642 2001 
Q 2353 2234 1838 2234 
L 1294 2234 
L 1294 2753 
L 1863 2753 
Q 2328 2753 2575 2939 
Q 2822 3125 2822 3475 
Q 2822 3834 2567 4026 
Q 2313 4219 1838 4219 
Q 1578 4219 1281 4162 
Q 984 4106 628 3988 
L 628 4550 
Q 988 4650 1302 4700 
Q 1616 4750 1894 4750 
Q 2613 4750 3031 4423 
Q 3450 4097 3450 3541 
Q 3450 3153 3228 2886 
Q 3006 2619 2597 2516 
z
" transform="scale(0.015625)"/>
       </defs>
       <use xlink:href="#DejaVuSans-33"/>
       <use xlink:href="#DejaVuSans-30" transform="translate(63.623047 0)"/>
      </g>
     </g>
    </g>
    <g id="ytick_5">
     <g id="line2d_41">
      <path d="M 42.843438 79.976131 
L 631.648438 79.976131 
" clip-path="url(#p286f730572)" style="fill: none; stroke-dasharray: 2.96,1.28; stroke-dashoffset: 0; stroke: #b0b0b0; stroke-opacity: 0.3; stroke-width: 0.8"/>
     </g>
     <g id="line2d_42">
      <g>
       <use xlink:href="#mea4014c519" x="42.843438" y="79.976131" style="stroke: #000000; stroke-width: 0.8"/>
      </g>
     </g>
     <g id="text_21">
      <!-- 40 -->
      <g transform="translate(21.845938 84.155271) scale(0.11 -0.11)">
       <defs>
        <path id="DejaVuSans-34" d="M 2419 4116 
L 825 1625 
L 2419 1625 
L 2419 4116 
z
M 2253 4666 
L 3047 4666 
L 3047 1625 
L 3713 1625 
L 3713 1100 
L 3047 1100 
L 3047 0 
L 2419 0 
L 2419 1100 
L 313 1100 
L 313 1709 
L 2253 4666 
z
" transform="scale(0.015625)"/>
       </defs>
       <use xlink:href="#DejaVuSans-34"/>
       <use xlink:href="#DejaVuSans-30" transform="translate(63.623047 0)"/>
      </g>
     </g>
    </g>
    <g id="ytick_6">
     <g id="line2d_43">
      <path d="M 42.843438 34.313657 
L 631.648438 34.313657 
" clip-path="url(#p286f730572)" style="fill: none; stroke-dasharray: 2.96,1.28; stroke-dashoffset: 0; stroke: #b0b0b0; stroke-opacity: 0.3; stroke-width: 0.8"/>
     </g>
     <g id="line2d_44">
      <g>
       <use xlink:href="#mea4014c519" x="42.843438" y="34.313657" style="stroke: #000000; stroke-width: 0.8"/>
      </g>
     </g>
     <g id="text_22">
      <!-- 50 -->
      <g transform="translate(21.845938 38.492798) scale(0.11 -0.11)">
       <defs>
        <path id="DejaVuSans-35" d="M 691 4666 
L 3169 4666 
L 3169 4134 
L 1269 4134 
L 1269 2991 
Q 1406 3038 1543 3061 
Q 1681 3084 1819 3084 
Q 2600 3084 3056 2656 
Q 3513 2228 3513 1497 
Q 3513 744 3044 326 
Q 2575 -91 1722 -91 
Q 1428 -91 1123 -41 
Q 819 9 494 109 
L 494 744 
Q 775 591 1075 516 
Q 1375 441 1709 441 
Q 2250 441 2565 725 
Q 2881 1009 2881 1497 
Q 2881 1984 2565 2268 
Q 2250 2553 1709 2553 
Q 1456 2553 1204 2497 
Q 953 2441 691 2322 
L 691 4666 
z
" transform="scale(0.015625)"/>
       </defs>
       <use xlink:href="#DejaVuSans-35"/>
       <use xlink:href="#DejaVuSans-30" transform="translate(63.623047 0)"/>
      </g>
     </g>
    </g>
    <g id="text_23">
     <!-- Время проверки одного прогона, мс -->
     <g transform="translate(15.558281 253.183785) rotate(-90) scale(0.11 -0.11)">
      <defs>
       <path id="DejaVuSans-412" d="M 1259 2228 
L 1259 519 
L 2272 519 
Q 2781 519 3026 730 
Q 3272 941 3272 1375 
Q 3272 1813 3026 2020 
Q 2781 2228 2272 2228 
L 1259 2228 
z
M 1259 4147 
L 1259 2741 
L 2194 2741 
Q 2656 2741 2882 2914 
Q 3109 3088 3109 3444 
Q 3109 3797 2882 3972 
Q 2656 4147 2194 4147 
L 1259 4147 
z
M 628 4666 
L 2241 4666 
Q 2963 4666 3353 4366 
Q 3744 4066 3744 3513 
Q 3744 3084 3544 2831 
Q 3344 2578 2956 2516 
Q 3422 2416 3680 2098 
Q 3938 1781 3938 1306 
Q 3938 681 3513 340 
Q 3088 0 2303 0 
L 628 0 
L 628 4666 
z
" transform="scale(0.015625)"/>
       <path id="DejaVuSans-440" d="M 1159 525 
L 1159 -1331 
L 581 -1331 
L 581 3500 
L 1159 3500 
L 1159 2969 
Q 1341 3281 1617 3432 
Q 1894 3584 2278 3584 
Q 2916 3584 3314 3078 
Q 3713 2572 3713 1747 
Q 3713 922 3314 415 
Q 2916 -91 2278 -91 
Q 1894 -91 1617 61 
Q 1341 213 1159 525 
z
M 3116 1747 
Q 3116 2381 2855 2742 
Q 2594 3103 2138 3103 
Q 1681 3103 1420 2742 
Q 1159 2381 1159 1747 
Q 1159 1113 1420 752 
Q 1681 391 2138 391 
Q 2594 391 2855 752 
Q 3116 1113 3116 1747 
z
" transform="scale(0.015625)"/>
       <path id="DejaVuSans-435" d="M 3597 1894 
L 3597 1613 
L 953 1613 
Q 991 1019 1311 708 
Q 1631 397 2203 397 
Q 2534 397 2845 478 
Q 3156 559 3463 722 
L 3463 178 
Q 3153 47 2828 -22 
Q 2503 -91 2169 -91 
Q 1331 -91 842 396 
Q 353 884 353 1716 
Q 353 2575 817 3079 
Q 1281 3584 2069 3584 
Q 2775 3584 3186 3129 
Q 3597 2675 3597 1894 
z
M 3022 2063 
Q 3016 2534 2758 2815 
Q 2500 3097 2075 3097 
Q 1594 3097 1305 2825 
Q 1016 2553 972 2059 
L 3022 2063 
z
" transform="scale(0.015625)"/>
       <path id="DejaVuSans-43c" d="M 581 3500 
L 1422 3500 
L 2416 1156 
L 3413 3500 
L 4247 3500 
L 4247 0 
L 3669 0 
L 3669 2950 
L 2703 672 
L 2128 672 
L 1159 2950 
L 1159 0 
L 581 0 
L 581 3500 
z
" transform="scale(0.015625)"/>
       <path id="DejaVuSans-44f" d="M 1181 2491 
Q 1181 2231 1381 2084 
Q 1581 1938 1953 1938 
L 2728 1938 
L 2728 3041 
L 1953 3041 
Q 1581 3041 1381 2897 
Q 1181 2753 1181 2491 
z
M 363 0 
L 1431 1534 
Q 1069 1616 828 1830 
Q 588 2044 588 2491 
Q 588 2997 923 3248 
Q 1259 3500 1938 3500 
L 3306 3500 
L 3306 0 
L 2728 0 
L 2728 1478 
L 2013 1478 
L 981 0 
L 363 0 
z
" transform="scale(0.015625)"/>
       <path id="DejaVuSans-20" transform="scale(0.015625)"/>
       <path id="DejaVuSans-43f" d="M 3603 3500 
L 3603 0 
L 3025 0 
L 3025 3041 
L 1159 3041 
L 1159 0 
L 581 0 
L 581 3500 
L 3603 3500 
z
" transform="scale(0.015625)"/>
       <path id="DejaVuSans-43e" d="M 1959 3097 
Q 1497 3097 1228 2736 
Q 959 2375 959 1747 
Q 959 1119 1226 758 
Q 1494 397 1959 397 
Q 2419 397 2687 759 
Q 2956 1122 2956 1747 
Q 2956 2369 2687 2733 
Q 2419 3097 1959 3097 
z
M 1959 3584 
Q 2709 3584 3137 3096 
Q 3566 2609 3566 1747 
Q 3566 888 3137 398 
Q 2709 -91 1959 -91 
Q 1206 -91 779 398 
Q 353 888 353 1747 
Q 353 2609 779 3096 
Q 1206 3584 1959 3584 
z
" transform="scale(0.015625)"/>
       <path id="DejaVuSans-432" d="M 1156 1613 
L 1156 459 
L 1975 459 
Q 2369 459 2575 607 
Q 2781 756 2781 1038 
Q 2781 1319 2575 1466 
Q 2369 1613 1975 1613 
L 1156 1613 
z
M 1156 3041 
L 1156 2072 
L 1913 2072 
Q 2238 2072 2444 2201 
Q 2650 2331 2650 2563 
Q 2650 2794 2444 2917 
Q 2238 3041 1913 3041 
L 1156 3041 
z
M 581 3500 
L 1950 3500 
Q 2566 3500 2897 3275 
Q 3228 3050 3228 2634 
Q 3228 2313 3059 2123 
Q 2891 1934 2559 1888 
Q 2956 1813 3175 1575 
Q 3394 1338 3394 981 
Q 3394 513 3033 256 
Q 2672 0 2003 0 
L 581 0 
L 581 3500 
z
" transform="scale(0.015625)"/>
       <path id="DejaVuSans-43a" d="M 581 3500 
L 1153 3500 
L 1153 1856 
L 2775 3500 
L 3481 3500 
L 2144 2147 
L 3653 0 
L 3009 0 
L 1769 1766 
L 1153 1141 
L 1153 0 
L 581 0 
L 581 3500 
z
" transform="scale(0.015625)"/>
       <path id="DejaVuSans-438" d="M 3578 3500 
L 3578 0 
L 3006 0 
L 3006 2809 
L 1319 0 
L 581 0 
L 581 3500 
L 1153 3500 
L 1153 697 
L 2838 3500 
L 3578 3500 
z
" transform="scale(0.015625)"/>
       <path id="DejaVuSans-434" d="M 1384 459 
L 3053 459 
L 3053 3041 
L 1844 3041 
L 1844 2603 
Q 1844 1316 1475 628 
L 1384 459 
z
M 550 459 
Q 834 584 959 850 
Q 1266 1509 1266 2838 
L 1266 3500 
L 3631 3500 
L 3631 459 
L 4091 459 
L 4091 -884 
L 3631 -884 
L 3631 0 
L 794 0 
L 794 -884 
L 334 -884 
L 334 459 
L 550 459 
z
" transform="scale(0.015625)"/>
       <path id="DejaVuSans-43d" d="M 581 3500 
L 1159 3500 
L 1159 2072 
L 3025 2072 
L 3025 3500 
L 3603 3500 
L 3603 0 
L 3025 0 
L 3025 1613 
L 1159 1613 
L 1159 0 
L 581 0 
L 581 3500 
z
" transform="scale(0.015625)"/>
       <path id="DejaVuSans-433" d="M 581 0 
L 581 3500 
L 3050 3500 
L 3050 3041 
L 1159 3041 
L 1159 0 
L 581 0 
z
" transform="scale(0.015625)"/>
       <path id="DejaVuSans-430" d="M 2194 1759 
Q 1497 1759 1228 1600 
Q 959 1441 959 1056 
Q 959 750 1161 570 
Q 1363 391 1709 391 
Q 2188 391 2477 730 
Q 2766 1069 2766 1631 
L 2766 1759 
L 2194 1759 
z
M 3341 1997 
L 3341 0 
L 2766 0 
L 2766 531 
Q 2569 213 2275 61 
Q 1981 -91 1556 -91 
Q 1019 -91 701 211 
Q 384 513 384 1019 
Q 384 1609 779 1909 
Q 1175 2209 1959 2209 
L 2766 2209 
L 2766 2266 
Q 2766 2663 2505 2880 
Q 2244 3097 1772 3097 
Q 1472 3097 1187 3025 
Q 903 2953 641 2809 
L 641 3341 
Q 956 3463 1253 3523 
Q 1550 3584 1831 3584 
Q 2591 3584 2966 3190 
Q 3341 2797 3341 1997 
z
" transform="scale(0.015625)"/>
       <path id="DejaVuSans-2c" d="M 750 794 
L 1409 794 
L 1409 256 
L 897 -744 
L 494 -744 
L 750 256 
L 750 794 
z
" transform="scale(0.015625)"/>
       <path id="DejaVuSans-441" d="M 3122 3366 
L 3122 2828 
Q 2878 2963 2633 3030 
Q 2388 3097 2138 3097 
Q 1578 3097 1268 2742 
Q 959 2388 959 1747 
Q 959 1106 1268 751 
Q 1578 397 2138 397 
Q 2388 397 2633 464 
Q 2878 531 3122 666 
L 3122 134 
Q 2881 22 2623 -34 
Q 2366 -91 2075 -91 
Q 1284 -91 818 406 
Q 353 903 353 1747 
Q 353 2603 823 3093 
Q 1294 3584 2113 3584 
Q 2378 3584 2631 3529 
Q 2884 3475 3122 3366 
z
" transform="scale(0.015625)"/>
      </defs>
      <use xlink:href="#DejaVuSans-412"/>
      <use xlink:href="#DejaVuSans-440" transform="translate(68.603516 0)"/>
      <use xlink:href="#DejaVuSans-435" transform="translate(132.080078 0)"/>
      <use xlink:href="#DejaVuSans-43c" transform="translate(193.603516 0)"/>
      <use xlink:href="#DejaVuSans-44f" transform="translate(269.042969 0)"/>
      <use xlink:href="#DejaVuSans-20" transform="translate(329.199219 0)"/>
      <use xlink:href="#DejaVuSans-43f" transform="translate(360.986328 0)"/>
      <use xlink:href="#DejaVuSans-440" transform="translate(426.367188 0)"/>
      <use xlink:href="#DejaVuSans-43e" transform="translate(489.84375 0)"/>
      <use xlink:href="#DejaVuSans-432" transform="translate(551.025391 0)"/>
      <use xlink:href="#DejaVuSans-435" transform="translate(609.960938 0)"/>
      <use xlink:href="#DejaVuSans-440" transform="translate(671.484375 0)"/>
      <use xlink:href="#DejaVuSans-43a" transform="translate(734.960938 0)"/>
      <use xlink:href="#DejaVuSans-438" transform="translate(795.361328 0)"/>
      <use xlink:href="#DejaVuSans-20" transform="translate(860.351562 0)"/>
      <use xlink:href="#DejaVuSans-43e" transform="translate(892.138672 0)"/>
      <use xlink:href="#DejaVuSans-434" transform="translate(953.320312 0)"/>
      <use xlink:href="#DejaVuSans-43d" transform="translate(1022.460938 0)"/>
      <use xlink:href="#DejaVuSans-43e" transform="translate(1087.841797 0)"/>
      <use xlink:href="#DejaVuSans-433" transform="translate(1149.023438 0)"/>
      <use xlink:href="#DejaVuSans-43e" transform="translate(1201.5625 0)"/>
      <use xlink:href="#DejaVuSans-20" transform="translate(1262.744141 0)"/>
      <use xlink:href="#DejaVuSans-43f" transform="translate(1294.53125 0)"/>
      <use xlink:href="#DejaVuSans-440" transform="translate(1359.912109 0)"/>
      <use xlink:href="#DejaVuSans-43e" transform="translate(1423.388672 0)"/>
      <use xlink:href="#DejaVuSans-433" transform="translate(1484.570312 0)"/>
      <use xlink:href="#DejaVuSans-43e" transform="translate(1537.109375 0)"/>
      <use xlink:href="#DejaVuSans-43d" transform="translate(1598.291016 0)"/>
      <use xlink:href="#DejaVuSans-430" transform="translate(1663.671875 0)"/>
      <use xlink:href="#DejaVuSans-2c" transform="translate(1724.951172 0)"/>
      <use xlink:href="#DejaVuSans-20" transform="translate(1756.738281 0)"/>
      <use xlink:href="#DejaVuSans-43c" transform="translate(1788.525391 0)"/>
      <use xlink:href="#DejaVuSans-441" transform="translate(1863.964844 0)"/>
     </g>
    </g>
   </g>
   <g id="patch_3">
    <path d="M 50.2035 257.546076 
L 72.283688 257.546076 
L 72.283688 257.189909 
L 50.2035 257.189909 
L 50.2035 257.546076 
z
" clip-path="url(#p286f730572)" style="fill: #9e9e9e; opacity: 0.7; stroke: #000000; stroke-linejoin: miter"/>
   </g>
   <g id="line2d_45">
    <path d="M 61.243594 257.546076 
L 61.243594 258.00955 
" clip-path="url(#p286f730572)" style="fill: none; stroke: #000000; stroke-linecap: square"/>
   </g>
   <g id="line2d_46">
    <path d="M 61.243594 257.189909 
L 61.243594 256.694471 
" clip-path="url(#p286f730572)" style="fill: none; stroke: #000000; stroke-linecap: square"/>
   </g>
   <g id="line2d_47">
    <path d="M 55.723547 258.00955 
L 66.763641 258.00955 
" clip-path="url(#p286f730572)" style="fill: none; stroke: #000000; stroke-linecap: square"/>
   </g>
   <g id="line2d_48">
    <path d="M 55.723547 256.694471 
L 66.763641 256.694471 
" clip-path="url(#p286f730572)" style="fill: none; stroke: #000000; stroke-linecap: square"/>
   </g>
   <g id="line2d_49">
    <defs>
     <path id="mfd8c3337f6" d="M 0 3 
C 0.795609 3 1.55874 2.683901 2.12132 2.12132 
C 2.683901 1.55874 3 0.795609 3 0 
C 3 -0.795609 2.683901 -1.55874 2.12132 -2.12132 
C 1.55874 -2.683901 0.795609 -3 0 -3 
C -0.795609 -3 -1.55874 -2.683901 -2.12132 -2.12132 
C -2.683901 -1.55874 -3 -0.795609 -3 0 
C -3 0.795609 -2.683901 1.55874 -2.12132 2.12132 
C -1.55874 2.683901 -0.795609 3 0 3 
z
" style="stroke: #000000"/>
    </defs>
    <g clip-path="url(#p286f730572)">
     <use xlink:href="#mfd8c3337f6" x="61.243594" y="255.79492" style="fill-opacity: 0; stroke: #000000"/>
     <use xlink:href="#mfd8c3337f6" x="61.243594" y="256.625977" style="fill-opacity: 0; stroke: #000000"/>
    </g>
   </g>
   <g id="patch_4">
    <path d="M 87.003812 133.276795 
L 109.084 133.276795 
L 109.084 129.688866 
L 87.003812 129.688866 
L 87.003812 133.276795 
z
" clip-path="url(#p286f730572)" style="fill: #1976d2; opacity: 0.7; stroke: #000000; stroke-linejoin: miter"/>
   </g>
   <g id="line2d_50">
    <path d="M 98.043906 133.276795 
L 98.043906 136.077046 
" clip-path="url(#p286f730572)" style="fill: none; stroke: #000000; stroke-linecap: square"/>
   </g>
   <g id="line2d_51">
    <path d="M 98.043906 129.688866 
L 98.043906 125.446822 
" clip-path="url(#p286f730572)" style="fill: none; stroke: #000000; stroke-linecap: square"/>
   </g>
   <g id="line2d_52">
    <path d="M 92.523859 136.077046 
L 103.563953 136.077046 
" clip-path="url(#p286f730572)" style="fill: none; stroke: #000000; stroke-linecap: square"/>
   </g>
   <g id="line2d_53">
    <path d="M 92.523859 125.446822 
L 103.563953 125.446822 
" clip-path="url(#p286f730572)" style="fill: none; stroke: #000000; stroke-linecap: square"/>
   </g>
   <g id="line2d_54">
    <g clip-path="url(#p286f730572)">
     <use xlink:href="#mfd8c3337f6" x="98.043906" y="96.442019" style="fill-opacity: 0; stroke: #000000"/>
     <use xlink:href="#mfd8c3337f6" x="98.043906" y="120.446781" style="fill-opacity: 0; stroke: #000000"/>
     <use xlink:href="#mfd8c3337f6" x="98.043906" y="33.710912" style="fill-opacity: 0; stroke: #000000"/>
     <use xlink:href="#mfd8c3337f6" x="98.043906" y="121.876017" style="fill-opacity: 0; stroke: #000000"/>
    </g>
   </g>
   <g id="patch_5">
    <path d="M 123.804125 258.668231 
L 145.884312 258.668231 
L 145.884312 257.637401 
L 123.804125 257.637401 
L 123.804125 258.668231 
z
" clip-path="url(#p286f730572)" style="fill: #9e9e9e; opacity: 0.7; stroke: #000000; stroke-linejoin: miter"/>
   </g>
   <g id="line2d_55">
    <path d="M 134.844219 258.668231 
L 134.844219 258.895402 
" clip-path="url(#p286f730572)" style="fill: none; stroke: #000000; stroke-linecap: square"/>
   </g>
   <g id="line2d_56">
    <path d="M 134.844219 257.637401 
L 134.844219 257.055205 
" clip-path="url(#p286f730572)" style="fill: none; stroke: #000000; stroke-linecap: square"/>
   </g>
   <g id="line2d_57">
    <path d="M 129.324172 258.895402 
L 140.364266 258.895402 
" clip-path="url(#p286f730572)" style="fill: none; stroke: #000000; stroke-linecap: square"/>
   </g>
   <g id="line2d_58">
    <path d="M 129.324172 257.055205 
L 140.364266 257.055205 
" clip-path="url(#p286f730572)" style="fill: none; stroke: #000000; stroke-linecap: square"/>
   </g>
   <g id="line2d_59"/>
   <g id="patch_6">
    <path d="M 160.604438 165.531625 
L 182.684625 165.531625 
L 182.684625 135.355579 
L 160.604438 135.355579 
L 160.604438 165.531625 
z
" clip-path="url(#p286f730572)" style="fill: #1976d2; opacity: 0.7; stroke: #000000; stroke-linejoin: miter"/>
   </g>
   <g id="line2d_60">
    <path d="M 171.644531 165.531625 
L 171.644531 169.652663 
" clip-path="url(#p286f730572)" style="fill: none; stroke: #000000; stroke-linecap: square"/>
   </g>
   <g id="line2d_61">
    <path d="M 171.644531 135.355579 
L 171.644531 131.38751 
" clip-path="url(#p286f730572)" style="fill: none; stroke: #000000; stroke-linecap: square"/>
   </g>
   <g id="line2d_62">
    <path d="M 166.124484 169.652663 
L 177.164578 169.652663 
" clip-path="url(#p286f730572)" style="fill: none; stroke: #000000; stroke-linecap: square"/>
   </g>
   <g id="line2d_63">
    <path d="M 166.124484 131.38751 
L 177.164578 131.38751 
" clip-path="url(#p286f730572)" style="fill: none; stroke: #000000; stroke-linecap: square"/>
   </g>
   <g id="line2d_64"/>
   <g id="patch_7">
    <path d="M 197.40475 260.497014 
L 219.484938 260.497014 
L 219.484938 260.409113 
L 197.40475 260.409113 
L 197.40475 260.497014 
z
" clip-path="url(#p286f730572)" style="fill: #9e9e9e; opacity: 0.7; stroke: #000000; stroke-linejoin: miter"/>
   </g>
   <g id="line2d_65">
    <path d="M 208.444844 260.497014 
L 208.444844 260.571215 
" clip-path="url(#p286f730572)" style="fill: none; stroke: #000000; stroke-linecap: square"/>
   </g>
   <g id="line2d_66">
    <path d="M 208.444844 260.409113 
L 208.444844 260.29724 
" clip-path="url(#p286f730572)" style="fill: none; stroke: #000000; stroke-linecap: square"/>
   </g>
   <g id="line2d_67">
    <path d="M 202.924797 260.571215 
L 213.964891 260.571215 
" clip-path="url(#p286f730572)" style="fill: none; stroke: #000000; stroke-linecap: square"/>
   </g>
   <g id="line2d_68">
    <path d="M 202.924797 260.29724 
L 213.964891 260.29724 
" clip-path="url(#p286f730572)" style="fill: none; stroke: #000000; stroke-linecap: square"/>
   </g>
   <g id="line2d_69">
    <g clip-path="url(#p286f730572)">
     <use xlink:href="#mfd8c3337f6" x="208.444844" y="260.242445" style="fill-opacity: 0; stroke: #000000"/>
     <use xlink:href="#mfd8c3337f6" x="208.444844" y="260.155687" style="fill-opacity: 0; stroke: #000000"/>
     <use xlink:href="#mfd8c3337f6" x="208.444844" y="259.840615" style="fill-opacity: 0; stroke: #000000"/>
    </g>
   </g>
   <g id="patch_8">
    <path d="M 234.205062 202.62896 
L 256.28525 202.62896 
L 256.28525 200.208849 
L 234.205062 200.208849 
L 234.205062 202.62896 
z
" clip-path="url(#p286f730572)" style="fill: #1976d2; opacity: 0.7; stroke: #000000; stroke-linejoin: miter"/>
   </g>
   <g id="line2d_70">
    <path d="M 245.245156 202.62896 
L 245.245156 203.840157 
" clip-path="url(#p286f730572)" style="fill: none; stroke: #000000; stroke-linecap: square"/>
   </g>
   <g id="line2d_71">
    <path d="M 245.245156 200.208849 
L 245.245156 198.228239 
" clip-path="url(#p286f730572)" style="fill: none; stroke: #000000; stroke-linecap: square"/>
   </g>
   <g id="line2d_72">
    <path d="M 239.725109 203.840157 
L 250.765203 203.840157 
" clip-path="url(#p286f730572)" style="fill: none; stroke: #000000; stroke-linecap: square"/>
   </g>
   <g id="line2d_73">
    <path d="M 239.725109 198.228239 
L 250.765203 198.228239 
" clip-path="url(#p286f730572)" style="fill: none; stroke: #000000; stroke-linecap: square"/>
   </g>
   <g id="line2d_74">
    <g clip-path="url(#p286f730572)">
     <use xlink:href="#mfd8c3337f6" x="245.245156" y="196.082103" style="fill-opacity: 0; stroke: #000000"/>
     <use xlink:href="#mfd8c3337f6" x="245.245156" y="195.840092" style="fill-opacity: 0; stroke: #000000"/>
    </g>
   </g>
   <g id="patch_9">
    <path d="M 271.005375 258.614578 
L 293.085562 258.614578 
L 293.085562 258.435353 
L 271.005375 258.435353 
L 271.005375 258.614578 
z
" clip-path="url(#p286f730572)" style="fill: #9e9e9e; opacity: 0.7; stroke: #000000; stroke-linejoin: miter"/>
   </g>
   <g id="line2d_75">
    <path d="M 282.045469 258.614578 
L 282.045469 258.753849 
" clip-path="url(#p286f730572)" style="fill: none; stroke: #000000; stroke-linecap: square"/>
   </g>
   <g id="line2d_76">
    <path d="M 282.045469 258.435353 
L 282.045469 258.260694 
" clip-path="url(#p286f730572)" style="fill: none; stroke: #000000; stroke-linecap: square"/>
   </g>
   <g id="line2d_77">
    <path d="M 276.525422 258.753849 
L 287.565516 258.753849 
" clip-path="url(#p286f730572)" style="fill: none; stroke: #000000; stroke-linecap: square"/>
   </g>
   <g id="line2d_78">
    <path d="M 276.525422 258.260694 
L 287.565516 258.260694 
" clip-path="url(#p286f730572)" style="fill: none; stroke: #000000; stroke-linecap: square"/>
   </g>
   <g id="line2d_79">
    <g clip-path="url(#p286f730572)">
     <use xlink:href="#mfd8c3337f6" x="282.045469" y="257.927358" style="fill-opacity: 0; stroke: #000000"/>
     <use xlink:href="#mfd8c3337f6" x="282.045469" y="257.945623" style="fill-opacity: 0; stroke: #000000"/>
     <use xlink:href="#mfd8c3337f6" x="282.045469" y="257.429637" style="fill-opacity: 0; stroke: #000000"/>
    </g>
   </g>
   <g id="patch_10">
    <path d="M 307.805687 163.813574 
L 329.885875 163.813574 
L 329.885875 160.452816 
L 307.805687 160.452816 
L 307.805687 163.813574 
z
" clip-path="url(#p286f730572)" style="fill: #1976d2; opacity: 0.7; stroke: #000000; stroke-linejoin: miter"/>
   </g>
   <g id="line2d_80">
    <path d="M 318.845781 163.813574 
L 318.845781 165.269066 
" clip-path="url(#p286f730572)" style="fill: none; stroke: #000000; stroke-linecap: square"/>
   </g>
   <g id="line2d_81">
    <path d="M 318.845781 160.452816 
L 318.845781 157.611469 
" clip-path="url(#p286f730572)" style="fill: none; stroke: #000000; stroke-linecap: square"/>
   </g>
   <g id="line2d_82">
    <path d="M 313.325734 165.269066 
L 324.365828 165.269066 
" clip-path="url(#p286f730572)" style="fill: none; stroke: #000000; stroke-linecap: square"/>
   </g>
   <g id="line2d_83">
    <path d="M 313.325734 157.611469 
L 324.365828 157.611469 
" clip-path="url(#p286f730572)" style="fill: none; stroke: #000000; stroke-linecap: square"/>
   </g>
   <g id="line2d_84"/>
   <g id="patch_11">
    <path d="M 344.606 261.483323 
L 366.686187 261.483323 
L 366.686187 261.411405 
L 344.606 261.411405 
L 344.606 261.483323 
z
" clip-path="url(#p286f730572)" style="fill: #9e9e9e; opacity: 0.7; stroke: #000000; stroke-linejoin: miter"/>
   </g>
   <g id="line2d_85">
    <path d="M 355.646094 261.483323 
L 355.646094 261.566657 
" clip-path="url(#p286f730572)" style="fill: none; stroke: #000000; stroke-linecap: square"/>
   </g>
   <g id="line2d_86">
    <path d="M 355.646094 261.411405 
L 355.646094 261.329212 
" clip-path="url(#p286f730572)" style="fill: none; stroke: #000000; stroke-linecap: square"/>
   </g>
   <g id="line2d_87">
    <path d="M 350.126047 261.566657 
L 361.166141 261.566657 
" clip-path="url(#p286f730572)" style="fill: none; stroke: #000000; stroke-linecap: square"/>
   </g>
   <g id="line2d_88">
    <path d="M 350.126047 261.329212 
L 361.166141 261.329212 
" clip-path="url(#p286f730572)" style="fill: none; stroke: #000000; stroke-linecap: square"/>
   </g>
   <g id="line2d_89">
    <g clip-path="url(#p286f730572)">
     <use xlink:href="#mfd8c3337f6" x="355.646094" y="261.201357" style="fill-opacity: 0; stroke: #000000"/>
     <use xlink:href="#mfd8c3337f6" x="355.646094" y="261.17396" style="fill-opacity: 0; stroke: #000000"/>
    </g>
   </g>
   <g id="patch_12">
    <path d="M 381.406312 222.042361 
L 403.4865 222.042361 
L 403.4865 220.129103 
L 381.406312 220.129103 
L 381.406312 222.042361 
z
" clip-path="url(#p286f730572)" style="fill: #1976d2; opacity: 0.7; stroke: #000000; stroke-linejoin: miter"/>
   </g>
   <g id="line2d_90">
    <path d="M 392.446406 222.042361 
L 392.446406 223.178215 
" clip-path="url(#p286f730572)" style="fill: none; stroke: #000000; stroke-linecap: square"/>
   </g>
   <g id="line2d_91">
    <path d="M 392.446406 220.129103 
L 392.446406 218.022922 
" clip-path="url(#p286f730572)" style="fill: none; stroke: #000000; stroke-linecap: square"/>
   </g>
   <g id="line2d_92">
    <path d="M 386.926359 223.178215 
L 397.966453 223.178215 
" clip-path="url(#p286f730572)" style="fill: none; stroke: #000000; stroke-linecap: square"/>
   </g>
   <g id="line2d_93">
    <path d="M 386.926359 218.022922 
L 397.966453 218.022922 
" clip-path="url(#p286f730572)" style="fill: none; stroke: #000000; stroke-linecap: square"/>
   </g>
   <g id="line2d_94">
    <g clip-path="url(#p286f730572)">
     <use xlink:href="#mfd8c3337f6" x="392.446406" y="88.22734" style="fill-opacity: 0; stroke: #000000"/>
    </g>
   </g>
   <g id="patch_13">
    <path d="M 418.206625 258.679647 
L 440.286812 258.679647 
L 440.286812 258.490148 
L 418.206625 258.490148 
L 418.206625 258.679647 
z
" clip-path="url(#p286f730572)" style="fill: #9e9e9e; opacity: 0.7; stroke: #000000; stroke-linejoin: miter"/>
   </g>
   <g id="line2d_95">
    <path d="M 429.246719 258.679647 
L 429.246719 258.758415 
" clip-path="url(#p286f730572)" style="fill: none; stroke: #000000; stroke-linecap: square"/>
   </g>
   <g id="line2d_96">
    <path d="M 429.246719 258.490148 
L 429.246719 258.256128 
" clip-path="url(#p286f730572)" style="fill: none; stroke: #000000; stroke-linecap: square"/>
   </g>
   <g id="line2d_97">
    <path d="M 423.726672 258.758415 
L 434.766766 258.758415 
" clip-path="url(#p286f730572)" style="fill: none; stroke: #000000; stroke-linecap: square"/>
   </g>
   <g id="line2d_98">
    <path d="M 423.726672 258.256128 
L 434.766766 258.256128 
" clip-path="url(#p286f730572)" style="fill: none; stroke: #000000; stroke-linecap: square"/>
   </g>
   <g id="line2d_99">
    <g clip-path="url(#p286f730572)">
     <use xlink:href="#mfd8c3337f6" x="429.246719" y="258.027815" style="fill-opacity: 0; stroke: #000000"/>
     <use xlink:href="#mfd8c3337f6" x="429.246719" y="258.087176" style="fill-opacity: 0; stroke: #000000"/>
     <use xlink:href="#mfd8c3337f6" x="429.246719" y="257.93649" style="fill-opacity: 0; stroke: #000000"/>
    </g>
   </g>
   <g id="patch_14">
    <path d="M 455.006937 164.111522 
L 477.087125 164.111522 
L 477.087125 161.116064 
L 455.006937 161.116064 
L 455.006937 164.111522 
z
" clip-path="url(#p286f730572)" style="fill: #1976d2; opacity: 0.7; stroke: #000000; stroke-linejoin: miter"/>
   </g>
   <g id="line2d_100">
    <path d="M 466.047031 164.111522 
L 466.047031 166.191448 
" clip-path="url(#p286f730572)" style="fill: none; stroke: #000000; stroke-linecap: square"/>
   </g>
   <g id="line2d_101">
    <path d="M 466.047031 161.116064 
L 466.047031 157.638866 
" clip-path="url(#p286f730572)" style="fill: none; stroke: #000000; stroke-linecap: square"/>
   </g>
   <g id="line2d_102">
    <path d="M 460.526984 166.191448 
L 471.567078 166.191448 
" clip-path="url(#p286f730572)" style="fill: none; stroke: #000000; stroke-linecap: square"/>
   </g>
   <g id="line2d_103">
    <path d="M 460.526984 157.638866 
L 471.567078 157.638866 
" clip-path="url(#p286f730572)" style="fill: none; stroke: #000000; stroke-linecap: square"/>
   </g>
   <g id="line2d_104">
    <g clip-path="url(#p286f730572)">
     <use xlink:href="#mfd8c3337f6" x="466.047031" y="153.520111" style="fill-opacity: 0; stroke: #000000"/>
    </g>
   </g>
   <g id="patch_15">
    <path d="M 491.80725 258.574623 
L 513.887438 258.574623 
L 513.887438 258.382841 
L 491.80725 258.382841 
L 491.80725 258.574623 
z
" clip-path="url(#p286f730572)" style="fill: #9e9e9e; opacity: 0.7; stroke: #000000; stroke-linejoin: miter"/>
   </g>
   <g id="line2d_105">
    <path d="M 502.847344 258.574623 
L 502.847344 258.758415 
" clip-path="url(#p286f730572)" style="fill: none; stroke: #000000; stroke-linecap: square"/>
   </g>
   <g id="line2d_106">
    <path d="M 502.847344 258.382841 
L 502.847344 258.114574 
" clip-path="url(#p286f730572)" style="fill: none; stroke: #000000; stroke-linecap: square"/>
   </g>
   <g id="line2d_107">
    <path d="M 497.327297 258.758415 
L 508.367391 258.758415 
" clip-path="url(#p286f730572)" style="fill: none; stroke: #000000; stroke-linecap: square"/>
   </g>
   <g id="line2d_108">
    <path d="M 497.327297 258.114574 
L 508.367391 258.114574 
" clip-path="url(#p286f730572)" style="fill: none; stroke: #000000; stroke-linecap: square"/>
   </g>
   <g id="line2d_109">
    <g clip-path="url(#p286f730572)">
     <use xlink:href="#mfd8c3337f6" x="502.847344" y="257.210457" style="fill-opacity: 0; stroke: #000000"/>
     <use xlink:href="#mfd8c3337f6" x="502.847344" y="257.97302" style="fill-opacity: 0; stroke: #000000"/>
     <use xlink:href="#mfd8c3337f6" x="502.847344" y="257.854298" style="fill-opacity: 0; stroke: #000000"/>
     <use xlink:href="#mfd8c3337f6" x="502.847344" y="258.018683" style="fill-opacity: 0; stroke: #000000"/>
     <use xlink:href="#mfd8c3337f6" x="502.847344" y="256.959313" style="fill-opacity: 0; stroke: #000000"/>
    </g>
   </g>
   <g id="patch_16">
    <path d="M 528.607562 162.495071 
L 550.68775 162.495071 
L 550.68775 157.53156 
L 528.607562 157.53156 
L 528.607562 162.495071 
z
" clip-path="url(#p286f730572)" style="fill: #1976d2; opacity: 0.7; stroke: #000000; stroke-linejoin: miter"/>
   </g>
   <g id="line2d_110">
    <path d="M 539.647656 162.495071 
L 539.647656 165.451716 
" clip-path="url(#p286f730572)" style="fill: none; stroke: #000000; stroke-linecap: square"/>
   </g>
   <g id="line2d_111">
    <path d="M 539.647656 157.53156 
L 539.647656 150.976711 
" clip-path="url(#p286f730572)" style="fill: none; stroke: #000000; stroke-linecap: square"/>
   </g>
   <g id="line2d_112">
    <path d="M 534.127609 165.451716 
L 545.167703 165.451716 
" clip-path="url(#p286f730572)" style="fill: none; stroke: #000000; stroke-linecap: square"/>
   </g>
   <g id="line2d_113">
    <path d="M 534.127609 150.976711 
L 545.167703 150.976711 
" clip-path="url(#p286f730572)" style="fill: none; stroke: #000000; stroke-linecap: square"/>
   </g>
   <g id="line2d_114">
    <g clip-path="url(#p286f730572)">
     <use xlink:href="#mfd8c3337f6" x="539.647656" y="88.971638" style="fill-opacity: 0; stroke: #000000"/>
     <use xlink:href="#mfd8c3337f6" x="539.647656" y="148.634227" style="fill-opacity: 0; stroke: #000000"/>
     <use xlink:href="#mfd8c3337f6" x="539.647656" y="148.926466" style="fill-opacity: 0; stroke: #000000"/>
     <use xlink:href="#mfd8c3337f6" x="539.647656" y="142.24148" style="fill-opacity: 0; stroke: #000000"/>
     <use xlink:href="#mfd8c3337f6" x="539.647656" y="137.871581" style="fill-opacity: 0; stroke: #000000"/>
    </g>
   </g>
   <g id="patch_17">
    <path d="M 565.407875 261.13743 
L 587.488063 261.13743 
L 587.488063 261.000442 
L 565.407875 261.000442 
L 565.407875 261.13743 
z
" clip-path="url(#p286f730572)" style="fill: #9e9e9e; opacity: 0.7; stroke: #000000; stroke-linejoin: miter"/>
   </g>
   <g id="line2d_115">
    <path d="M 576.447969 261.13743 
L 576.447969 261.28355 
" clip-path="url(#p286f730572)" style="fill: none; stroke: #000000; stroke-linecap: square"/>
   </g>
   <g id="line2d_116">
    <path d="M 576.447969 261.000442 
L 576.447969 260.931949 
" clip-path="url(#p286f730572)" style="fill: none; stroke: #000000; stroke-linecap: square"/>
   </g>
   <g id="line2d_117">
    <path d="M 570.927922 261.28355 
L 581.968016 261.28355 
" clip-path="url(#p286f730572)" style="fill: none; stroke: #000000; stroke-linecap: square"/>
   </g>
   <g id="line2d_118">
    <path d="M 570.927922 260.931949 
L 581.968016 260.931949 
" clip-path="url(#p286f730572)" style="fill: none; stroke: #000000; stroke-linecap: square"/>
   </g>
   <g id="line2d_119">
    <g clip-path="url(#p286f730572)">
     <use xlink:href="#mfd8c3337f6" x="576.447969" y="260.717335" style="fill-opacity: 0; stroke: #000000"/>
     <use xlink:href="#mfd8c3337f6" x="576.447969" y="260.457059" style="fill-opacity: 0; stroke: #000000"/>
     <use xlink:href="#mfd8c3337f6" x="576.447969" y="260.562083" style="fill-opacity: 0; stroke: #000000"/>
     <use xlink:href="#mfd8c3337f6" x="576.447969" y="260.498155" style="fill-opacity: 0; stroke: #000000"/>
     <use xlink:href="#mfd8c3337f6" x="576.447969" y="260.630576" style="fill-opacity: 0; stroke: #000000"/>
    </g>
   </g>
   <g id="patch_18">
    <path d="M 602.208188 215.465823 
L 624.288375 215.465823 
L 624.288375 213.345943 
L 602.208188 213.345943 
L 602.208188 215.465823 
z
" clip-path="url(#p286f730572)" style="fill: #1976d2; opacity: 0.7; stroke: #000000; stroke-linejoin: miter"/>
   </g>
   <g id="line2d_120">
    <path d="M 613.248281 215.465823 
L 613.248281 216.525193 
" clip-path="url(#p286f730572)" style="fill: none; stroke: #000000; stroke-linecap: square"/>
   </g>
   <g id="line2d_121">
    <path d="M 613.248281 213.345943 
L 613.248281 211.242045 
" clip-path="url(#p286f730572)" style="fill: none; stroke: #000000; stroke-linecap: square"/>
   </g>
   <g id="line2d_122">
    <path d="M 607.728234 216.525193 
L 618.768328 216.525193 
" clip-path="url(#p286f730572)" style="fill: none; stroke: #000000; stroke-linecap: square"/>
   </g>
   <g id="line2d_123">
    <path d="M 607.728234 211.242045 
L 618.768328 211.242045 
" clip-path="url(#p286f730572)" style="fill: none; stroke: #000000; stroke-linecap: square"/>
   </g>
   <g id="line2d_124">
    <g clip-path="url(#p286f730572)">
     <use xlink:href="#mfd8c3337f6" x="613.248281" y="206.917808" style="fill-opacity: 0; stroke: #000000"/>
    </g>
   </g>
   <g id="line2d_125">
    <path d="M 50.2035 257.473016 
L 72.283688 257.473016 
" clip-path="url(#p286f730572)" style="fill: none; stroke: #ff7f0e"/>
   </g>
   <g id="line2d_126">
    <path d="M 87.003812 131.307601 
L 109.084 131.307601 
" clip-path="url(#p286f730572)" style="fill: none; stroke: #ff7f0e"/>
   </g>
   <g id="line2d_127">
    <path d="M 123.804125 257.79037 
L 145.884312 257.79037 
" clip-path="url(#p286f730572)" style="fill: none; stroke: #ff7f0e"/>
   </g>
   <g id="line2d_128">
    <path d="M 160.604438 137.684365 
L 182.684625 137.684365 
" clip-path="url(#p286f730572)" style="fill: none; stroke: #ff7f0e"/>
   </g>
   <g id="line2d_129">
    <path d="M 197.40475 260.463908 
L 219.484938 260.463908 
" clip-path="url(#p286f730572)" style="fill: none; stroke: #ff7f0e"/>
   </g>
   <g id="line2d_130">
    <path d="M 234.205062 201.632377 
L 256.28525 201.632377 
" clip-path="url(#p286f730572)" style="fill: none; stroke: #ff7f0e"/>
   </g>
   <g id="line2d_131">
    <path d="M 271.005375 258.555217 
L 293.085562 258.555217 
" clip-path="url(#p286f730572)" style="fill: none; stroke: #ff7f0e"/>
   </g>
   <g id="line2d_132">
    <path d="M 307.805687 162.61151 
L 329.885875 162.61151 
" clip-path="url(#p286f730572)" style="fill: none; stroke: #ff7f0e"/>
   </g>
   <g id="line2d_133">
    <path d="M 344.606 261.445651 
L 366.686187 261.445651 
" clip-path="url(#p286f730572)" style="fill: none; stroke: #ff7f0e"/>
   </g>
   <g id="line2d_134">
    <path d="M 381.406312 221.048061 
L 403.4865 221.048061 
" clip-path="url(#p286f730572)" style="fill: none; stroke: #ff7f0e"/>
   </g>
   <g id="line2d_135">
    <path d="M 418.206625 258.584897 
L 440.286812 258.584897 
" clip-path="url(#p286f730572)" style="fill: none; stroke: #ff7f0e"/>
   </g>
   <g id="line2d_136">
    <path d="M 455.006937 163.239369 
L 477.087125 163.239369 
" clip-path="url(#p286f730572)" style="fill: none; stroke: #ff7f0e"/>
   </g>
   <g id="line2d_137">
    <path d="M 491.80725 258.493573 
L 513.887438 258.493573 
" clip-path="url(#p286f730572)" style="fill: none; stroke: #ff7f0e"/>
   </g>
   <g id="line2d_138">
    <path d="M 528.607562 159.565823 
L 550.68775 159.565823 
" clip-path="url(#p286f730572)" style="fill: none; stroke: #ff7f0e"/>
   </g>
   <g id="line2d_139">
    <path d="M 565.407875 261.098617 
L 587.488063 261.098617 
" clip-path="url(#p286f730572)" style="fill: none; stroke: #ff7f0e"/>
   </g>
   <g id="line2d_140">
    <path d="M 602.208188 214.616501 
L 624.288375 214.616501 
" clip-path="url(#p286f730572)" style="fill: none; stroke: #ff7f0e"/>
   </g>
   <g id="patch_19">
    <path d="M 42.843438 272.959444 
L 42.843438 22.318125 
" style="fill: none; stroke: #000000; stroke-width: 0.8; stroke-linejoin: miter; stroke-linecap: square"/>
   </g>
   <g id="patch_20">
    <path d="M 42.843438 272.959444 
L 631.648438 272.959444 
" style="fill: none; stroke: #000000; stroke-width: 0.8; stroke-linejoin: miter; stroke-linecap: square"/>
   </g>
   <g id="text_24">
    <!-- Производительность по сценариям: baseline vs FLV -->
    <g transform="translate(174.7125 16.318125) scale(0.12 -0.12)">
     <defs>
      <path id="DejaVuSans-41f" d="M 4184 4666 
L 4184 0 
L 3553 0 
L 3553 4134 
L 1259 4134 
L 1259 0 
L 628 0 
L 628 4666 
L 4184 4666 
z
" transform="scale(0.015625)"/>
      <path id="DejaVuSans-437" d="M 2206 1888 
Q 2594 1813 2809 1584 
Q 3025 1356 3025 1019 
Q 3025 478 2622 193 
Q 2219 -91 1475 -91 
Q 1225 -91 961 -47 
Q 697 -3 416 84 
L 416 619 
Q 638 503 903 445 
Q 1169 388 1459 388 
Q 1931 388 2195 563 
Q 2459 738 2459 1019 
Q 2459 1294 2225 1461 
Q 1991 1628 1563 1628 
L 1100 1628 
L 1100 2103 
L 1584 2103 
Q 1947 2103 2158 2242 
Q 2369 2381 2369 2600 
Q 2369 2800 2151 2944 
Q 1934 3088 1563 3088 
Q 1341 3088 1089 3047 
Q 838 3006 534 2916 
L 534 3438 
Q 841 3513 1106 3550 
Q 1372 3588 1609 3588 
Q 2222 3588 2576 3342 
Q 2931 3097 2931 2656 
Q 2931 2366 2743 2164 
Q 2556 1963 2206 1888 
z
" transform="scale(0.015625)"/>
      <path id="DejaVuSans-442" d="M 188 3500 
L 3541 3500 
L 3541 3041 
L 2147 3041 
L 2147 0 
L 1581 0 
L 1581 3041 
L 188 3041 
L 188 3500 
z
" transform="scale(0.015625)"/>
      <path id="DejaVuSans-43b" d="M 238 0 
L 238 478 
Q 806 566 981 959 
Q 1194 1513 1194 2928 
L 1194 3500 
L 3559 3500 
L 3559 0 
L 2984 0 
L 2984 3041 
L 1769 3041 
L 1769 2694 
Q 1769 1344 1494 738 
Q 1200 91 238 0 
z
" transform="scale(0.015625)"/>
      <path id="DejaVuSans-44c" d="M 2781 1038 
Q 2781 1319 2576 1466 
Q 2372 1613 1978 1613 
L 1159 1613 
L 1159 459 
L 1978 459 
Q 2372 459 2576 607 
Q 2781 756 2781 1038 
z
M 581 3500 
L 1159 3500 
L 1159 2072 
L 2003 2072 
Q 2672 2072 3033 1817 
Q 3394 1563 3394 1038 
Q 3394 513 3033 256 
Q 2672 0 2003 0 
L 581 0 
L 581 3500 
z
" transform="scale(0.015625)"/>
      <path id="DejaVuSans-446" d="M 3603 0 
L 581 0 
L 581 3500 
L 1159 3500 
L 1159 459 
L 3025 459 
L 3025 3500 
L 3603 3500 
L 3603 459 
L 4063 459 
L 4063 -884 
L 3603 -884 
L 3603 0 
z
" transform="scale(0.015625)"/>
      <path id="DejaVuSans-3a" d="M 750 794 
L 1409 794 
L 1409 0 
L 750 0 
L 750 794 
z
M 750 3309 
L 1409 3309 
L 1409 2516 
L 750 2516 
L 750 3309 
z
" transform="scale(0.015625)"/>
     </defs>
     <use xlink:href="#DejaVuSans-41f"/>
     <use xlink:href="#DejaVuSans-440" transform="translate(75.195312 0)"/>
     <use xlink:href="#DejaVuSans-43e" transform="translate(138.671875 0)"/>
     <use xlink:href="#DejaVuSans-438" transform="translate(199.853516 0)"/>
     <use xlink:href="#DejaVuSans-437" transform="translate(264.84375 0)"/>
     <use xlink:href="#DejaVuSans-432" transform="translate(318.017578 0)"/>
     <use xlink:href="#DejaVuSans-43e" transform="translate(376.953125 0)"/>
     <use xlink:href="#DejaVuSans-434" transform="translate(438.134766 0)"/>
     <use xlink:href="#DejaVuSans-438" transform="translate(507.275391 0)"/>
     <use xlink:href="#DejaVuSans-442" transform="translate(572.265625 0)"/>
     <use xlink:href="#DejaVuSans-435" transform="translate(630.517578 0)"/>
     <use xlink:href="#DejaVuSans-43b" transform="translate(692.041016 0)"/>
     <use xlink:href="#DejaVuSans-44c" transform="translate(755.957031 0)"/>
     <use xlink:href="#DejaVuSans-43d" transform="translate(814.892578 0)"/>
     <use xlink:href="#DejaVuSans-43e" transform="translate(880.273438 0)"/>
     <use xlink:href="#DejaVuSans-441" transform="translate(941.455078 0)"/>
     <use xlink:href="#DejaVuSans-442" transform="translate(996.435547 0)"/>
     <use xlink:href="#DejaVuSans-44c" transform="translate(1054.6875 0)"/>
     <use xlink:href="#DejaVuSans-20" transform="translate(1113.623047 0)"/>
     <use xlink:href="#DejaVuSans-43f" transform="translate(1145.410156 0)"/>
     <use xlink:href="#DejaVuSans-43e" transform="translate(1210.791016 0)"/>
     <use xlink:href="#DejaVuSans-20" transform="translate(1271.972656 0)"/>
     <use xlink:href="#DejaVuSans-441" transform="translate(1303.759766 0)"/>
     <use xlink:href="#DejaVuSans-446" transform="translate(1358.740234 0)"/>
     <use xlink:href="#DejaVuSans-435" transform="translate(1426.806641 0)"/>
     <use xlink:href="#DejaVuSans-43d" transform="translate(1488.330078 0)"/>
     <use xlink:href="#DejaVuSans-430" transform="translate(1553.710938 0)"/>
     <use xlink:href="#DejaVuSans-440" transform="translate(1614.990234 0)"/>
     <use xlink:href="#DejaVuSans-438" transform="translate(1678.466797 0)"/>
     <use xlink:href="#DejaVuSans-44f" transform="translate(1743.457031 0)"/>
     <use xlink:href="#DejaVuSans-43c" transform="translate(1803.613281 0)"/>
     <use xlink:href="#DejaVuSans-3a" transform="translate(1879.052734 0)"/>
     <use xlink:href="#DejaVuSans-20" transform="translate(1912.744141 0)"/>
     <use xlink:href="#DejaVuSans-62" transform="translate(1944.53125 0)"/>
     <use xlink:href="#DejaVuSans-61" transform="translate(2008.007812 0)"/>
     <use xlink:href="#DejaVuSans-73" transform="translate(2069.287109 0)"/>
     <use xlink:href="#DejaVuSans-65" transform="translate(2121.386719 0)"/>
     <use xlink:href="#DejaVuSans-6c" transform="translate(2182.910156 0)"/>
     <use xlink:href="#DejaVuSans-69" transform="translate(2210.693359 0)"/>
     <use xlink:href="#DejaVuSans-6e" transform="translate(2238.476562 0)"/>
     <use xlink:href="#DejaVuSans-65" transform="translate(2301.855469 0)"/>
     <use xlink:href="#DejaVuSans-20" transform="translate(2363.378906 0)"/>
     <use xlink:href="#DejaVuSans-76" transform="translate(2395.166016 0)"/>
     <use xlink:href="#DejaVuSans-73" transform="translate(2454.345703 0)"/>
     <use xlink:href="#DejaVuSans-20" transform="translate(2506.445312 0)"/>
     <use xlink:href="#DejaVuSans-46" transform="translate(2538.232422 0)"/>
     <use xlink:href="#DejaVuSans-4c" transform="translate(2595.751953 0)"/>
     <use xlink:href="#DejaVuSans-56" transform="translate(2640.464844 0)"/>
    </g>
   </g>
  </g>
 </g>
 <defs>
  <clipPath id="p286f730572">
   <rect x="42.843438" y="22.318125" width="588.805" height="250.641319"/>
  </clipPath>
 </defs>
</svg>
